<svg xmlns="http://www.w3.org/2000/svg" fill="none" viewBox="0 0 24 24"><g clip-path="url(#box--24-a)"><g clip-path="url(#box--24-b)"><path fill="red" fill-opacity=".7" d="M15.0005-.0254A.026.026 0 0 1 15.0259 0v8.9395l8.957-8.957a.025.025 0 0 1 .0352 0 .0254.0254 0 0 1 0 .035L15.061 8.9747h8.9444A.026.026 0 0 1 24.0308 9a.026.026 0 0 1-.0254.0254h-8.9795v2.9443h8.9795a.026.026 0 0 1 .0254.0254.026.026 0 0 1-.0254.0254h-8.9795v2.9541h8.9795a.026.026 0 0 1 .0254.0254.026.026 0 0 1-.0254.0254H15.061l8.9571 8.957a.0255.0255 0 0 1 0 .0352.025.025 0 0 1-.0352 0l-8.957-8.9571V24a.026.026 0 0 1-.0254.0254.0257.0257 0 0 1-.0254-.0254v-8.9746h-2.9492V24a.026.026 0 0 1-.0254.0254.0257.0257 0 0 1-.0254-.0254v-8.9746H9.0259V24a.026.026 0 0 1-.0254.0254A.0257.0257 0 0 1 8.975 24v-8.9395l-8.957 8.9571a.025.025 0 0 1-.0352 0 .025.025 0 0 1 0-.0352l8.957-8.957H.0054A.0257.0257 0 0 1-.02 15a.0257.0257 0 0 1 .0254-.0254H8.975v-2.9541H.0054a.026.026 0 0 1-.0254-.0254.0257.0257 0 0 1 .0254-.0254H8.975V9.0254H.0054A.0257.0257 0 0 1-.02 9a.0257.0257 0 0 1 .0254-.0254h8.9345L-.017.0176a.025.025 0 0 1 0-.0352.025.025 0 0 1 .0352 0l8.957 8.957V0a.0257.0257 0 0 1 .0254-.0254A.026.026 0 0 1 9.0259 0v8.9746h2.9492V0a.0257.0257 0 0 1 .0254-.0254.026.026 0 0 1 .0254.0254v8.9746h2.9492V0a.0257.0257 0 0 1 .0254-.0254m-5.9395 15h2.9141v-2.9141zm2.9649 0h2.914l-2.914-2.9141zm2.9492-.0351v-2.919h-2.9189zm-5.9492 0 2.9189-2.919h-2.919zm0-2.9698h2.9092L9.0259 9.0605zm3.04 0h2.9092V9.0605zm-.0908-.0302V9.0254h-2.914zm.0508 0 2.914-2.9141h-2.914z" opacity=".9"/><path stroke="red" stroke-linecap="round" stroke-width=".1" d="M4 21c-1.6568 0-3-1.3431-3-3V6c0-1.6569 1.3432-3 3-3h16c1.6569 0 3 1.3431 3 3v12c0 1.6569-1.3431 3-3 3z"/></g><path fill="#2668c5" d="M22.806 16.5876c.2747.3845.2197.8789-.1098 1.1535-.3845.2746-.9338.2197-1.2084-.1098l-1.9225-2.4718-1.8675 2.4168c-.2746.3845-.8239.3845-1.2084.1099s-.4394-.769-.1648-1.1535l2.1971-2.8562-2.1971-2.8562c-.2746-.3845-.1647-.9337.1648-1.2084.3845-.2746.9338-.1648 1.2084.1648l1.8675 2.4717 1.9225-2.3619c.2746-.3844.769-.4394 1.2084-.1647.3845.2746.3845.8239.1098 1.2084l-2.1421 2.8012zm-9.9967-.3295c-1.4281 0-2.5816-1.0986-2.5816-2.5267 0-1.3731 1.1535-2.5266 2.5816-2.5266s2.5816 1.1535 2.5816 2.5266c-.0549 1.4281-1.2084 2.5267-2.5816 2.5267m-7.58 0c-1.428 0-2.5815-1.0986-2.5815-2.5267 0-1.3731 1.1535-2.5266 2.5816-2.5266s2.5816 1.1535 2.5816 2.5266c0 1.4281-1.1535 2.5267-2.5816 2.5267m7.58-6.7011c-1.5929 0-3.021.8788-3.735 2.1971-.714-1.3183-2.1422-2.1971-3.79-2.1971-.9887 0-1.8675.3295-2.5816.8239V6.8656c0-.4394-.3466-.824-.786-.824-.4944 0-.9167.3845-.9167.824v6.9208c.055 2.3069 1.9225 4.1719 4.2294 4.1719 1.6478 0 3.0759-.9862 3.79-2.3044.714 1.3182 2.1421 2.252 3.735 2.252 2.3618 0 4.2843-1.8675 4.2843-4.2294.0549-2.252-1.8675-4.1195-4.2294-4.1195"/></g><defs><clipPath id="box--24-a"><path fill="#fff" d="M0 0h24v24H0z"/></clipPath><clipPath id="box--24-b"><path fill="#fff" d="M0 0h24v24H0z"/></clipPath></defs></svg>