<svg xmlns="http://www.w3.org/2000/svg" fill="none" viewBox="0 0 24 25"><g clip-path="url(#briefcase-a)"><path fill="red" fill-opacity=".7" d="M15.0005-.0254A.026.026 0 0 1 15.0259 0v8.9395l8.957-8.957a.025.025 0 0 1 .0352 0 .0254.0254 0 0 1 0 .035L15.061 8.9747h8.9444A.026.026 0 0 1 24.0308 9a.026.026 0 0 1-.0254.0254h-8.9795v2.9443h8.9795a.026.026 0 0 1 .0254.0254.026.026 0 0 1-.0254.0254h-8.9795v2.9541h8.9795a.026.026 0 0 1 .0254.0254.026.026 0 0 1-.0254.0254H15.061l8.9571 8.957a.0255.0255 0 0 1 0 .0352.025.025 0 0 1-.0352 0l-8.957-8.9571V24a.026.026 0 0 1-.0254.0254.0257.0257 0 0 1-.0254-.0254v-8.9746h-2.9492V24a.026.026 0 0 1-.0254.0254.0257.0257 0 0 1-.0254-.0254v-8.9746H9.0259V24a.026.026 0 0 1-.0254.0254A.0257.0257 0 0 1 8.975 24v-8.9395l-8.957 8.9571a.025.025 0 0 1-.0352 0 .025.025 0 0 1 0-.0352l8.957-8.957H.0054A.0257.0257 0 0 1-.02 15a.0257.0257 0 0 1 .0254-.0254H8.975v-2.9541H.0054a.026.026 0 0 1-.0254-.0254.0257.0257 0 0 1 .0254-.0254H8.975V9.0254H.0054A.0257.0257 0 0 1-.02 9a.0257.0257 0 0 1 .0254-.0254h8.9345L-.017.0176a.025.025 0 0 1 0-.0352.025.025 0 0 1 .0352 0l8.957 8.957V0a.0257.0257 0 0 1 .0254-.0254A.026.026 0 0 1 9.0259 0v8.9746h2.9492V0a.0257.0257 0 0 1 .0254-.0254.026.026 0 0 1 .0254.0254v8.9746h2.9492V0a.0257.0257 0 0 1 .0254-.0254m-5.9395 15h2.9141v-2.9141zm2.9649 0h2.914l-2.914-2.9141zm2.9492-.0351v-2.919h-2.9189zm-5.9492 0 2.9189-2.919h-2.919zm0-2.9698h2.9092L9.0259 9.0605zm3.04 0h2.9092V9.0605zm-.0908-.0302V9.0254h-2.914zm.0508 0 2.914-2.9141h-2.914z" opacity=".9"/><path stroke="red" stroke-linecap="round" stroke-width=".1" d="M4 21c-1.6568 0-3-1.3431-3-3V6c0-1.6569 1.3432-3 3-3h16c1.6569 0 3 1.3431 3 3v12c0 1.6569-1.3431 3-3 3z"/></g><path stroke="currentColor" stroke-linecap="round" stroke-linejoin="round" stroke-width="2" d="M16.4444 6.4765V4.2411a2.242 2.242 0 0 0-.6508-1.5806 2.216 2.216 0 0 0-1.5714-.6547H9.7778a2.216 2.216 0 0 0-1.5714.6547 2.242 2.242 0 0 0-.6508 1.5806v2.2352M22 10.3883c-3.2969 2.1895-6.0494 3.3566-10 3.3566s-6.7031-1.1671-10-3.3566m2.2222-3.9117h15.5556C21.0051 6.4765 22 7.4772 22 8.7116v10.0589c0 1.2345-.9949 2.2353-2.2222 2.2353H4.2222C2.995 21.0059 2 20.0051 2 18.7706V8.7117c0-1.2345.995-2.2353 2.2222-2.2353"/><defs><clipPath id="briefcase-a"><path fill="#fff" d="M0 0h24v24H0z"/></clipPath></defs></svg>