<svg xmlns="http://www.w3.org/2000/svg" fill="none" viewBox="0 0 24 24"><path fill="currentColor" d="m7 22-.5265.8502.242.1498H7zm13.8775-.0913.6028-.798zM12 2c0-.5523-.4477-1-1-1s-1 .4477-1 1h2M4 15h1c0-3.0442 2.1441-6 6-6V7c-5.144 0-8 4.0442-8 8zm7-7v1c3.8559 0 6 2.9558 6 6h2c0-3.9558-2.8559-8-8-8zm-7 7-.9995-.0298c-.0983 3.2985 1.1742 6.4563 3.473 7.88L7 22l.5266-.8502c-1.4835-.9187-2.6125-3.2502-2.527-6.12zm3 7v1h13.8477v-2H7zm13.8775-.0913.6028-.798c-.8566-.6471-1.4169-1.2759-1.7974-2.1389-.3929-.8911-.6292-2.1117-.6833-4.0004L18 15l-.9995.0286c.0573 2.0026.3095 3.5186.8524 4.7501.5553 1.2596 1.3781 2.1394 2.4218 2.9279zM4 15v1h14v-2H4zm7-13h-1v6h2V2zm9.8477 20v1c1.0486 0 1.4036-1.3068.6326-1.8893l-.6028.798-.6028.7979c-.694-.5243-.379-1.7066.573-1.7066zm-7.7881-7.0093-.9997-.0251c-.0248.9877.1005 2.53.56 4.0228.4519 1.4676 1.2879 3.081 2.8269 3.9256l.4811-.8766.4811-.8767c-.864-.4742-1.4847-1.4846-1.8776-2.7607-.3851-1.2509-.4925-2.5725-.4721-3.3842z"/></svg>