<svg xmlns="http://www.w3.org/2000/svg" fill="none" viewBox="0 0 24 24"><g clip-path="url(#cloud-shield-a)"><g clip-path="url(#cloud-shield-b)"><path fill="red" fill-opacity=".7" d="M15.0005-.0264a.026.026 0 0 1 .0254.0254v8.9395l8.957-8.957a.025.025 0 0 1 .0352 0 .0254.0254 0 0 1 0 .0351l-8.9571 8.957h8.9444a.026.026 0 0 1 .0254.0254.026.026 0 0 1-.0254.0254h-8.9795v2.9444h8.9795a.026.026 0 0 1 .0254.0253.026.026 0 0 1-.0254.0254h-8.9795v2.9541h8.9795a.026.026 0 0 1 .0254.0254.026.026 0 0 1-.0254.0254H15.061l8.9571 8.957a.0255.0255 0 0 1 0 .0352.025.025 0 0 1-.0352 0l-8.957-8.957v8.9394a.026.026 0 0 1-.0254.0254.0257.0257 0 0 1-.0254-.0254v-8.9746h-2.9492v8.9746a.026.026 0 0 1-.0254.0254.0257.0257 0 0 1-.0254-.0254v-8.9746H9.0259v8.9746a.026.026 0 0 1-.0254.0254.0257.0257 0 0 1-.0254-.0254v-8.9394l-8.957 8.957a.025.025 0 0 1-.0352 0 .025.025 0 0 1 0-.0352l8.957-8.957H.0054A.0257.0257 0 0 1-.02 14.999a.0257.0257 0 0 1 .0254-.0254H8.975v-2.9541H.0054a.026.026 0 0 1-.0254-.0254.0256.0256 0 0 1 .0254-.0253H8.975V9.0244H.0054A.0257.0257 0 0 1-.02 8.999a.0257.0257 0 0 1 .0254-.0254h8.9345L-.017.0166a.025.025 0 0 1 0-.0352.025.025 0 0 1 .0352 0l8.957 8.957V-.001a.0257.0257 0 0 1 .0254-.0254.026.026 0 0 1 .0254.0254v8.9746h2.9492V-.001a.0257.0257 0 0 1 .0254-.0254.026.026 0 0 1 .0254.0254v8.9746h2.9492V-.001a.0257.0257 0 0 1 .0254-.0254m-5.9395 15h2.9141v-2.914zm2.9649 0h2.914l-2.914-2.914zm2.9492-.0351v-2.919h-2.9189zm-5.9492 0 2.9189-2.919h-2.919zm0-2.9697h2.9092L9.0259 9.0596zm3.04 0h2.9092V9.0596zm-.0908-.0303v-2.914h-2.914zm.0508 0 2.914-2.914h-2.914z" opacity=".9"/><rect width="20" height="20" x="2" y="1.999" stroke="red" stroke-linecap="round" stroke-width=".1" rx="3"/></g><path stroke="currentColor" stroke-linecap="round" stroke-linejoin="round" stroke-width="2" d="M20 16.572c1.1864-.6587 2-2.0113 2-3.573 0-2.0427-1.8436-4.0411-4-4-.1798-3.4382-2.1092-6-6-6-2.5424 0-5 2-5.2555 4.5108C4 7.5098 2 9.6796 2 12.3296c0 1.724.7932 3.1153 2 3.9174"/><path stroke="currentColor" stroke-linecap="round" stroke-linejoin="round" stroke-width="2" d="M12.17 21.9726c2.08-.7249 3.83-1.9748 3.83-4.4744v-5.4994H8v5.4994c0 2.4996 1.75 3.7495 3.835 4.4694a.5.5 0 0 0 .335.005"/></g><defs><clipPath id="cloud-shield-a"><path fill="#fff" d="M0 0h24v24H0z"/></clipPath><clipPath id="cloud-shield-b"><path fill="#fff" d="M0-.001h24v24H0z"/></clipPath></defs></svg>