<svg xmlns="http://www.w3.org/2000/svg" fill="none" viewBox="0 0 24 24"><g clip-path="url(#database-cluster-a)"><g clip-path="url(#database-cluster-b)"><path fill="red" fill-opacity=".7" d="M15.0005-.0264a.026.026 0 0 1 .0254.0254v8.9395l8.957-8.957a.025.025 0 0 1 .0352 0 .0254.0254 0 0 1 0 .0351l-8.9571 8.957h8.9444a.026.026 0 0 1 .0254.0254.026.026 0 0 1-.0254.0254h-8.9795v2.9444h8.9795a.026.026 0 0 1 .0254.0253.026.026 0 0 1-.0254.0254h-8.9795v2.9541h8.9795a.026.026 0 0 1 .0254.0254.026.026 0 0 1-.0254.0254H15.061l8.9571 8.957a.0255.0255 0 0 1 0 .0352.025.025 0 0 1-.0352 0l-8.957-8.957v8.9394a.026.026 0 0 1-.0254.0254.0257.0257 0 0 1-.0254-.0254v-8.9746h-2.9492v8.9746a.026.026 0 0 1-.0254.0254.0257.0257 0 0 1-.0254-.0254v-8.9746H9.0259v8.9746a.026.026 0 0 1-.0254.0254.0257.0257 0 0 1-.0254-.0254v-8.9394l-8.957 8.957a.025.025 0 0 1-.0352 0 .025.025 0 0 1 0-.0352l8.957-8.957H.0054A.0257.0257 0 0 1-.02 14.999a.0257.0257 0 0 1 .0254-.0254H8.975v-2.9541H.0054a.026.026 0 0 1-.0254-.0254.0256.0256 0 0 1 .0254-.0253H8.975V9.0244H.0054A.0257.0257 0 0 1-.02 8.999a.0257.0257 0 0 1 .0254-.0254h8.9345L-.017.0166a.025.025 0 0 1 0-.0352.025.025 0 0 1 .0352 0l8.957 8.957V-.001a.0257.0257 0 0 1 .0254-.0254.026.026 0 0 1 .0254.0254v8.9746h2.9492V-.001a.0257.0257 0 0 1 .0254-.0254.026.026 0 0 1 .0254.0254v8.9746h2.9492V-.001a.0257.0257 0 0 1 .0254-.0254m-5.9395 15h2.9141v-2.914zm2.9649 0h2.914l-2.914-2.914zm2.9492-.0351v-2.919h-2.9189zm-5.9492 0 2.9189-2.919h-2.919zm0-2.9697h2.9092L9.0259 9.0596zm3.04 0h2.9092V9.0596zm-.0908-.0303v-2.914h-2.914zm.0508 0 2.914-2.914h-2.914z" opacity=".9"/><rect width="20" height="20" x="2" y="1.999" stroke="red" stroke-linecap="round" stroke-width=".1" rx="3"/></g><path stroke="currentColor" stroke-linecap="round" stroke-linejoin="round" stroke-width="2" d="M6 11.0741v8.8518c0 .5501.6321 1.0777 1.7574 1.4666C8.8826 21.7815 10.4087 22 12 22s3.1174-.2185 4.2426-.6075S18 20.476 18 19.9259v-8.8518m-12 0c0 1.1455 2.6863 2.074 6 2.074s6-.9285 6-2.074m-12 0C6 9.9286 8.6863 9 12 9s6 .9286 6 2.0741"/><path stroke="currentColor" stroke-linecap="round" stroke-linejoin="round" stroke-width="2" d="M6 15.5c0 .53.632 1.039 1.757 1.414 1.125.375 2.651.586 4.243.586s3.117-.211 4.243-.586S18 16.03 18 15.5M22 3.778v7.444c0 .472-.527.924-1.464 1.257-.446.159-.968.284-1.535.372m3-9.074c0 .982-2.239 1.778-5 1.778s-5-.796-5-1.778S14.239 2 17 2s5 .796 5 1.778M2 3.778v7.444c0 .472.527.924 1.465 1.257.446.159.968.284 1.536.372M2 3.778c0 .982 2.239 1.778 5 1.778s5-.796 5-1.778S9.761 2 7 2s-5 .796-5 1.778"/><path stroke="currentColor" stroke-linecap="round" stroke-width="2" d="M12 4v4"/></g><defs><clipPath id="database-cluster-a"><path fill="#fff" d="M0 0h24v24H0z"/></clipPath><clipPath id="database-cluster-b"><path fill="#fff" d="M0-.001h24v24H0z"/></clipPath></defs></svg>