<svg xmlns="http://www.w3.org/2000/svg" fill="none" viewBox="0 0 24 24"><g clip-path="url(#devices-microcontroller-arduino--24-a)"><g clip-path="url(#devices-microcontroller-arduino--24-b)"><path fill="red" fill-opacity=".7" d="M15.0005-.0254A.026.026 0 0 1 15.0259 0v8.9395l8.957-8.957a.025.025 0 0 1 .0352 0 .0254.0254 0 0 1 0 .035L15.061 8.9747h8.9444A.026.026 0 0 1 24.0308 9a.026.026 0 0 1-.0254.0254h-8.9795v2.9443h8.9795a.026.026 0 0 1 .0254.0254.026.026 0 0 1-.0254.0254h-8.9795v2.9541h8.9795a.026.026 0 0 1 .0254.0254.026.026 0 0 1-.0254.0254H15.061l8.9571 8.957a.0255.0255 0 0 1 0 .0352.025.025 0 0 1-.0352 0l-8.957-8.9571V24a.026.026 0 0 1-.0254.0254.0257.0257 0 0 1-.0254-.0254v-8.9746h-2.9492V24a.026.026 0 0 1-.0254.0254.0257.0257 0 0 1-.0254-.0254v-8.9746H9.0259V24a.026.026 0 0 1-.0254.0254A.0257.0257 0 0 1 8.975 24v-8.9395l-8.957 8.9571a.025.025 0 0 1-.0352 0 .025.025 0 0 1 0-.0352l8.957-8.957H.0054A.0257.0257 0 0 1-.02 15a.0257.0257 0 0 1 .0254-.0254H8.975v-2.9541H.0054a.026.026 0 0 1-.0254-.0254.0257.0257 0 0 1 .0254-.0254H8.975V9.0254H.0054A.0257.0257 0 0 1-.02 9a.0257.0257 0 0 1 .0254-.0254h8.9345L-.017.0176a.025.025 0 0 1 0-.0352.025.025 0 0 1 .0352 0l8.957 8.957V0a.0257.0257 0 0 1 .0254-.0254A.026.026 0 0 1 9.0259 0v8.9746h2.9492V0a.0257.0257 0 0 1 .0254-.0254.026.026 0 0 1 .0254.0254v8.9746h2.9492V0a.0257.0257 0 0 1 .0254-.0254m-5.9395 15h2.9141v-2.9141zm2.9649 0h2.914l-2.914-2.9141zm2.9492-.0351v-2.919h-2.9189zm-5.9492 0 2.9189-2.919h-2.919zm0-2.9698h2.9092L9.0259 9.0605zm3.04 0h2.9092V9.0605zm-.0908-.0302V9.0254h-2.914zm.0508 0 2.914-2.9141h-2.914z" opacity=".9"/><circle cx="12" cy="12" r="11" stroke="red" stroke-linecap="round" stroke-width=".1"/></g><path fill="#2668c5" d="M23 12.0001c-.0533-2.81-2.4853-5.0476-5.4299-4.9993-.2708 0-.5548.0211-.8333.045-2.3266.3271-3.8782 1.9215-4.7371 3.1464-.8763-1.2249-2.4383-2.8193-4.747-3.1465-.2777-.0238-.552-.045-.8304-.045C3.479 6.9592 1.0546 9.1935 1 12.0002c.0547 2.8061 2.479 5.0403 5.4223 4.9993.2777 0 .552-.0211.8478-.0555 2.3274-.3166 3.8783-1.911 4.7483-3.1359.8762 1.2249 2.4278 2.8193 4.7468 3.1465.2854.0238.5563.0449.8403.0449 2.9293.0271 5.3405-2.2032 5.3945-4.9993M6.9854 15.175c-.1836.0344-.3962.0344-.5798.0344-1.9166.0377-3.5028-1.4014-3.5575-3.2265.061-1.8277 1.652-3.2674 3.5638-3.2258.1849 0 .39.0179.5811.0344 2.1896.31 3.5292 2.3552 3.9836 3.1914-.462.8375-1.8003 2.9092-3.9836 3.1921zm6.0214-3.1749c.4509-.8197 1.7926-2.882 3.9794-3.1914.1877-.0344.3886-.0344.5735-.0344 1.9229-.0555 3.5244 1.3908 3.5749 3.2258-.0616 1.8244-1.652 3.2635-3.5652 3.2258-.1877 0-.3885-.0165-.5735-.0344-2.1785-.3093-3.5278-2.3717-3.9787-3.1914zm-8.1167.5202h3.2687v-1.0226H4.8977v1.0226zm13.0485 0h1.1v-1.0226h-1.111v-1.0503h-1.0425v1.0602h-1.1076v1.0127h1.1076v1.0398h1.0646v-1.0292z"/></g><defs><clipPath id="devices-microcontroller-arduino--24-a"><path fill="#fff" d="M0 0h24v24H0z"/></clipPath><clipPath id="devices-microcontroller-arduino--24-b"><path fill="#fff" d="M0 0h24v24H0z"/></clipPath></defs></svg>