<svg xmlns="http://www.w3.org/2000/svg" fill="none" viewBox="0 0 24 24"><g clip-path="url(#devices-fingbox--24-a)"><g clip-path="url(#devices-fingbox--24-b)"><path fill="red" fill-opacity=".7" d="M15.0005-.0254A.026.026 0 0 1 15.0259 0v8.9395l8.957-8.957a.025.025 0 0 1 .0352 0 .0254.0254 0 0 1 0 .035L15.061 8.9747h8.9444A.026.026 0 0 1 24.0308 9a.026.026 0 0 1-.0254.0254h-8.9795v2.9443h8.9795a.026.026 0 0 1 .0254.0254.026.026 0 0 1-.0254.0254h-8.9795v2.9541h8.9795a.026.026 0 0 1 .0254.0254.026.026 0 0 1-.0254.0254H15.061l8.9571 8.957a.0255.0255 0 0 1 0 .0352.025.025 0 0 1-.0352 0l-8.957-8.9571V24a.026.026 0 0 1-.0254.0254.0257.0257 0 0 1-.0254-.0254v-8.9746h-2.9492V24a.026.026 0 0 1-.0254.0254.0257.0257 0 0 1-.0254-.0254v-8.9746H9.0259V24a.026.026 0 0 1-.0254.0254A.0257.0257 0 0 1 8.975 24v-8.9395l-8.957 8.9571a.025.025 0 0 1-.0352 0 .025.025 0 0 1 0-.0352l8.957-8.957H.0054A.0257.0257 0 0 1-.02 15a.0257.0257 0 0 1 .0254-.0254H8.975v-2.9541H.0054a.026.026 0 0 1-.0254-.0254.0257.0257 0 0 1 .0254-.0254H8.975V9.0254H.0054A.0257.0257 0 0 1-.02 9a.0257.0257 0 0 1 .0254-.0254h8.9345L-.017.0176a.025.025 0 0 1 0-.0352.025.025 0 0 1 .0352 0l8.957 8.957V0a.0257.0257 0 0 1 .0254-.0254A.026.026 0 0 1 9.0259 0v8.9746h2.9492V0a.0257.0257 0 0 1 .0254-.0254.026.026 0 0 1 .0254.0254v8.9746h2.9492V0a.0257.0257 0 0 1 .0254-.0254m-5.9395 15h2.9141v-2.9141zm2.9649 0h2.914l-2.914-2.9141zm2.9492-.0351v-2.919h-2.9189zm-5.9492 0 2.9189-2.919h-2.919zm0-2.9698h2.9092L9.0259 9.0605zm3.04 0h2.9092V9.0605zm-.0908-.0302V9.0254h-2.914zm.0508 0 2.914-2.9141h-2.914z" opacity=".9"/><circle cx="12" cy="12" r="11" stroke="red" stroke-linecap="round" stroke-width=".1"/></g><path fill="currentColor" d="M12 1c6.0751 0 11 4.9249 11 11s-4.9249 11-11 11S1 18.0751 1 12 5.9249 1 12 1m.1367 16.3623c-.7055.0001-1.2773.5728-1.2773 1.2783.0001.7055.5719 1.2772 1.2773 1.2774.7056 0 1.2782-.5718 1.2783-1.2774s-.5726-1.2783-1.2783-1.2783m2.8809-.0791a.57.57 0 0 0-.2471.0576 6.1 6.1 0 0 1-.6016.2588c-.2602.095-.4076.3745-.3437.6494.0589.2519.2891.4354.5459.4356a.54.54 0 0 0 .1904-.0342 6.6 6.6 0 0 0 .7071-.3047.553.553 0 0 0 .2832-.334.556.556 0 0 0-.044-.4385.561.561 0 0 0-.4902-.29m-5.79-.0049c-.1736 0-.3338.0839-.4288.2246l-.0332.0469a.52.52 0 0 0-.0732.419.537.537 0 0 0 .2685.3388c.206.1063.4183.2037.6309.2871a.53.53 0 0 0 .1953.0371.5214.5214 0 0 0 .5068-.3945l.0157-.0586c.0638-.2536-.0772-.5206-.3291-.6172a5.6 5.6 0 0 1-.5059-.2256.566.566 0 0 0-.247-.0576m7.6093-1.9834c-.7056 0-1.2782.5718-1.2783 1.2774s.5727 1.2783 1.2783 1.2783c.7055-.0002 1.2774-.5728 1.2774-1.2783-.0001-.7055-.5719-1.2772-1.2774-1.2774m-9.4775-.0537c-.7054.0002-1.2771.572-1.2774 1.2774 0 .7055.572 1.2781 1.2774 1.2783.7056 0 1.2783-.5727 1.2783-1.2783-.0002-.7055-.5728-1.2774-1.2783-1.2774m-1.3545-1.6211a.54.54 0 0 0-.1348.0166c-.157.0393-.2796.138-.3515.2754a.553.553 0 0 0-.0284.4463c.054.1457.113.2918.1768.4326.0884.1978.285.3271.501.3272.0948 0 .19-.0262.2734-.0752.234-.1391.3308-.4274.2246-.6729a5.8 5.8 0 0 1-.1543-.3945c-.0752-.2127-.2778-.3553-.5068-.3555M18.62 11.1328c-.2896.0001-.5314.2244-.5527.5108.0049.0472.0042.0946.0058.1435.0033.067.0049.1374.0049.2061 0 .8231-.1633 1.6203-.4873 2.3681-.108.2488-.0084.5409.2305.6768a.546.546 0 0 0 .2656.0703.542.542 0 0 0 .4971-.3291c.3879-.8935.5907-1.8592.5908-2.7969 0-.0719-.0013-.1459-.0029-.2178a3 3 0 0 0-.0098-.1982c-.0556-.252-.2834-.4336-.542-.4336m-6.4834-.7295c-.8731.0002-1.581.708-1.581 1.5811.0001.873.708 1.5809 1.581 1.581.8732 0 1.581-.7079 1.5811-1.581s-.7079-1.5811-1.5811-1.5811m-6.6299.292c-.7053.0002-1.2771.572-1.2773 1.2774 0 .7055.5719 1.2781 1.2773 1.2783.7057 0 1.2784-.5727 1.2784-1.2783-.0002-.7055-.5728-1.2774-1.2784-1.2774m.7207-2.0469c-.224 0-.4222.1239-.5156.3233a7 7 0 0 0-.2148.5078.582.582 0 0 0 .0244.462c.0737.1438.1981.2487.3535.2929a.54.54 0 0 0 .1611.0224c.2355-.0002.4475-.1458.5293-.3633a6.5 6.5 0 0 1 .1885-.4404c.1162-.2438.0347-.5381-.1943-.7002a.576.576 0 0 0-.332-.1045m8.2178-3.3086c-.2504 0-.4736.169-.5391.4112a.53.53 0 0 0-.0224.1523c0 .229.1439.4367.3564.5186a5.96 5.96 0 0 1 1.3604.7314c.1096.077.2149.159.3213.249l.0254.0215c.0196.0164.0399.0348.0595.0528.0425.0342.0899.0738.1338.1162.0441.0392.0887.0834.1328.126.0457.044.0849.0829.1192.122l.1308.1446-.1943-.0088-.1504-.005-.2412-.0097h-.0107c-.1032 0-.2003.0575-.2461.1475a.28.28 0 0 0-.0342.123l-.002.0225c-.0065.149.117.2802.2725.2851l.3135.0118 1.4179.0537h.0127c.0474 0 .0917-.0098.126-.0293.0965-.0474.1542-.136.1592-.2422l.0654-1.7373c.0016-.0522-.0096-.1014-.0342-.1406a.282.282 0 0 0-.2382-.1524h-.0225a.2813.2813 0 0 0-.2803.2725l-.0195.4853-.0078.1953-.1328-.1406a6.8 6.8 0 0 0-.7032-.6484c-.0229-.0197-.0483-.0377-.0712-.0557l-.0752-.0605c-.0033-.0018-.0093-.007-.0157-.0118-.0475-.036-.0967-.0704-.1474-.1064a3 3 0 0 0-.1592-.1094 3 3 0 0 0-.126-.083 2.6 2.6 0 0 0-.1181-.0723 3.5 3.5 0 0 0-.167-.0996 9 9 0 0 0-.168-.0957l-.0313-.0156a2.7 2.7 0 0 0-.1377-.0703c-.049-.0245-.098-.0474-.1455-.0703h-.0019l-.0195-.0088a6.2 6.2 0 0 0-.5528-.2334.55.55 0 0 0-.1914-.0352m-6.998.667c-.7054.0002-1.2772.572-1.2774 1.2774 0 .7055.5719 1.2781 1.2774 1.2783.7056 0 1.2783-.5727 1.2783-1.2783-.0002-.7055-.5728-1.2774-1.2783-1.2774m2.3115-.6289a.58.58 0 0 0-.2022.0371 7 7 0 0 0-.4287.1817.56.56 0 0 0-.2988.329.542.542 0 0 0 .0332.4307c.0966.1883.285.3028.4912.3028.08 0 .1588-.0175.2324-.0518a5.7 5.7 0 0 1 .3858-.169c.2586-.0998.3979-.3913.3193-.663-.0688-.2372-.2835-.3975-.5322-.3975m2.3555-1.2959c-.7054.0003-1.2773.572-1.2774 1.2774s.5719 1.278 1.2774 1.2783c.7056 0 1.2783-.5727 1.2783-1.2783-.0002-.7056-.5728-1.2774-1.2783-1.2774"/></g><defs><clipPath id="devices-fingbox--24-a"><path fill="#fff" d="M0 0h24v24H0z"/></clipPath><clipPath id="devices-fingbox--24-b"><path fill="#fff" d="M0 0h24v24H0z"/></clipPath></defs></svg>