<svg xmlns="http://www.w3.org/2000/svg" fill="none" viewBox="0 0 24 24"><path fill="#2668c5" d="M7.93 1c.091.134.2784.263.0962.44-.2268-.177-.4571-.3094-1.0037-.3987.1375.1323.3558.2646.22.3987-.2733-.0877-.5844-.1753-.9488-.22.1822.177.3146.3094.1788.3987-.2733-.1323-.7184-.2251-1.1275-.1375l.2612.275c.0447.0447-.6359.0413-1.045.0413.1358.2217.3214.4434.4125.7975-.0446.0447-.2715 0-.4537 0 .1822.4434.5466.526.7287.66-.1375.0877-.3128.0447-.495 0 .1358.3094.4452.5345.6738.7563-.0464.0446-.1392.0996-.4125.055.2269.2664.507.483.825.66-.0911.0876-.2716.0824-.4538.0824.2716.3111.6394.4555 1.0038.6326-.1822.1323-.33.0824-.4675.0824.2286.2218.6497.3077 1.0587.44-.091.1324-.1478.1341-.33.1788.4091.2217 1.045.1392 1.1825.3163 0 .1323-.1254.2165-.2612.2612.6823 0 2.4973-.0395 2.86-1.4162-.6824-.7529-1.9611-1.6449-4.0975-2.7088 1.6826.5328 3.1814 1.2908 4.455 2.31 1.5005-.6652.452-2.3977-.275-3.1075-.0447.177-.0774.2716-.1238.3162-.2268-.2664-.4108-.5345-.7287-.7562 0 .134.086.2664-.0963.3988-.1822-.2218-.4142-.4005-.6875-.5775.1358.2217.0499.3093-.0412.3987C8.6106 1.3558 8.3855 1.177 7.93 1m8.0712 0c-.4125.134-.6376.3575-.8662.5362-.0911-.0893-.1788-.1753-.0413-.3987-.3214.1787-.5053.354-.6875.5775-.1822-.0894-.0962-.2647-.0962-.3988-.3197.2682-.5002.4882-.7288.7563-.0464 0-.0928-.1375-.1375-.3162-.7322.6703-1.7325 2.408-.1787 3.1212 1.2805-1.026 2.7895-1.7308 4.4825-2.31C15.5973 3.6383 14.31 4.532 13.6225 5.29c.3661 1.3836 2.2017 1.461 2.8875 1.4162-.1375-.0893-.2286-.1271-.275-.2612.1839-.0894.7717.0034 1.1825-.22-.1822-.0447-.2252-.0447-.3163-.1787.3661-.1341.8164-.2304 1.045-.4538-.1357 0-.2715.0516-.4537-.0825.3197-.177.7305-.3644 1.0037-.6325-.1822-.0447-.4073-.0378-.4537-.0825.3197-.2234.5964-.4503.825-.6738-.2286.0447-.3661.0035-.4125-.0412.2286-.2681.55-.4434.6875-.7563-.1822.0894-.3713.0894-.5088 0 .0911-.1787.4641-.268.6463-.715-.1822 0-.4074.0447-.4538 0 .0929-.3574.275-.5878.4125-.8112-.4125 0-1.0536.0034-1.1-.0413l.275-.2612c-.4125-.0894-.8198.0344-1.1412.1237-.1375-.134-.0035-.2646.1787-.3987-.3643.0447-.6892.1306-.9625.22-.1375-.134.0963-.2647.2338-.3987-.5483.134-.7752.2646-1.0038.3987-.1822-.1787-.0103-.306.0825-.44m-3.8775 5.83c-1.2237 0-2.4475.9402-2.4475 1.4575 0 .6583.99 1.375 2.4475 1.375 1.5057 0 2.4475-.5173 2.4475-1.2237 0-.7993-1.3664-1.6088-2.4475-1.6088m-3.7125.495c-1.7187.012-3.0525 1.2014-2.97 3.1763.0464.8937 4.4791-2.9666 3.7263-3.1076-.2595-.0464-.5105-.0704-.7563-.0687m7.205.0687c-.244-.0068-.4967.0138-.7562.055-.7528.0946 3.6661 3.9411 3.7125 3.0938.0412-1.9336-1.2461-3.104-2.9563-3.1488M14.75 9.8c-.4074.0017-.8164.11-1.1688.33-1.0828.7064-1.2718 2.3409-.4262 3.6575.8937 1.3166 2.5059 1.7978 3.5887 1.045 1.0811-.7064 1.2599-2.3547.4125-3.6712-.5826-.8732-1.5107-1.3665-2.4062-1.3613m-5.4863.11c-.818.0705-1.643.5655-2.1725 1.3888-.8937 1.3165-.703 2.9648.4263 3.6712 1.0828.7064 2.6812.2389 3.575-1.0312.8937-1.3166.703-2.9649-.4263-3.6713-.4228-.2819-.9109-.3987-1.4025-.3575m9.57 1.43c-1.0639.0086-.2836 4.9328.6738 4.5238 1.0347-.8474 1.4111-3.3344-.5638-4.51a.42.42 0 0 0-.11-.0138M5.18 11.4225a.42.42 0 0 0-.11.0138c-1.9766 1.1292-1.6466 3.6764-.5638 4.5237.9574.4108 1.7377-4.5289.6738-4.5375m6.9987 3.355c-1.5056 0-2.6812 1.1378-2.6812 2.5025v.0413c0 1.3646 1.1756 2.4475 2.6812 2.4475 1.5039 0 2.6813-1.1241 2.6813-2.4888 0-1.363-1.2238-2.4544-2.6813-2.5025m5.9538.9763c-.6325.0103-1.3974.6187-2.1038 1.43-.8473.9401-1.3131 2.7207-.7012 3.2862.6119.4228 2.1587.3747 3.2862-1.2237.7993-1.0829.5191-2.8154.0963-3.2863-.177-.1409-.3661-.2097-.5775-.2062m-12.2238.3712c-.1632.0172-.3265.0773-.4675.165-.4709.3781-.5551 1.6448.1513 2.915 1.0347 1.5056 2.4819 1.6414 3.0937 1.265.6583-.4709.2854-2.1175-.4675-3.0112-.727-.8405-1.6018-1.4043-2.31-1.3338m5.8438 4.4c-1.0313.067-2.255.483-2.255.9763 0 .4228 1.3097 1.5589 2.6262 1.5125 1.2702.0481 2.585-1.0863 2.585-1.65-.0464-.5191-1.4489-.8852-2.53-.8388-.1357-.0052-.2784-.0103-.4262 0"/></svg>