<svg xmlns="http://www.w3.org/2000/svg" fill="none" viewBox="0 0 24 24"><g clip-path="url(#diamond-warning-a)"><path fill="currentColor" d="m2.4142 10.5858.7071.7071 8.1716-8.1716-.7071-.7071-.707-.7071L1.707 9.8787zm11.0001-8.1716-.7071.707 8.1716 8.1717.7071-.7071.7071-.7071-8.1716-8.1716zm8.1716 11-.7071-.7071-8.1716 8.1716.7071.7071.7071.7071 8.1716-8.1716zm-11.0001 8.1716.7071-.7071-8.1716-8.1716-.707.7071-.7072.7071 8.1716 8.1716zm2.8285 0-.7071-.7071c-.3906.3905-1.0237.3906-1.4143 0l-.7071.7071-.707.7071c1.1715 1.1716 3.071 1.1716 4.2426 0zm8.1716-11-.7071.7071c.3905.3905.3905 1.0237 0 1.4142l.7071.7071.7071.7071c1.1716-1.1716 1.1716-3.071 0-4.2426zM10.5858 2.4142l.7071.707c.3906-.3904 1.0237-.3904 1.4143 0l.7071-.707.7071-.7071c-1.1716-1.1716-3.0711-1.1716-4.2427 0zm-8.1716 8.1716-.707-.7071c-1.1717 1.1716-1.1717 3.071 0 4.2426l.707-.7071.7071-.7071c-.3905-.3905-.3905-1.0237 0-1.4142z"/><path stroke="currentColor" stroke-linecap="round" stroke-width="2" d="M12 7.8265v4.2333m0 4.2332v-.5291"/></g><defs><clipPath id="diamond-warning-a"><path fill="#fff" d="M0 0h24v24H0z"/></clipPath></defs></svg>