<svg xmlns="http://www.w3.org/2000/svg" fill="none" viewBox="0 0 24 24"><path fill="currentColor" d="m11.5933 4.0226.9608-.2771-.0141-.049-.019-.0471zm1.0192 3.533-.9609.2772.0141.049.019.0472zM21 10c0 .5523.4477 1 1 1s1-.4477 1-1h-2M9 21c.5523 0 1-.4477 1-1s-.4477-1-1-1v2m12.2929 1.7071c.3905.3905 1.0237.3905 1.4142 0s.3905-1.0237 0-1.4142L22 22zM10.0739 3v1c.2637 0 .4965.1595.5916.3959l.9278-.3733.9277-.3732C12.1191 2.6505 11.1485 2 10.0739 2zm1.5194 1.0226-.9608.2772 1.0191 3.533.9609-.2771.9608-.2772-1.0192-3.533zm1.0192 3.533-.9278.3734c.2777.69.9474 1.138 1.6874 1.138v-2a.182.182 0 0 1 .1681.1154zm.7596.5114v1h6.9915v-2h-6.9915zm6.9915 0v1c.357 0 .6364.2861.6364.6268h2c0-1.4563-1.1859-2.6268-2.6364-2.6268zM3.6364 20v-1C3.2794 19 3 18.7139 3 18.3732H1C1 19.8295 2.1859 21 3.6364 21zM2 18.3732h1V4.6268H1v13.7464zM2 4.6268h1C3 4.286 3.2794 4 3.6364 4V2C2.1859 2 1 3.1705 1 4.6268zM3.6364 3v1h6.4375V2H3.6364zM22 9.6938h-1V10h2v-.3062zM9 20v-1H3.6364v2H9zm11.8266-3.2805h-1c0 1.716-1.3911 3.1071-3.1071 3.1071v2c2.8205 0 5.1071-2.2866 5.1071-5.1071zm-4.1071 4.1071v-1c-1.716 0-3.1071-1.3911-3.1071-3.1071h-2c0 2.8205 2.2865 5.1071 5.1071 5.1071zm-4.1071-4.1071h1c0-1.716 1.3911-3.1071 3.1071-3.1071v-2c-2.8206 0-5.1071 2.2865-5.1071 5.1071zm4.1071-4.1071v1c1.716 0 3.1071 1.3911 3.1071 3.1071h2c0-2.8206-2.2866-5.1071-5.1071-5.1071zM22 22l.7071-.7071-1.7602-1.7602-.7071.7071-.7071.7071 1.7602 1.7602z"/></svg>