<svg xmlns="http://www.w3.org/2000/svg" fill="none" viewBox="0 0 24 24"><path fill="currentColor" d="m11.5933 4.0226-.9278.3733c.0255.0632.0573.1236.095.1803zm1.0192 1.533.9277-.3732a1 1 0 0 0-.095-.1804zM15.5 21c.5523 0 1-.4477 1-1s-.4477-1-1-1v2M20 10v1h.0018zM5.1118 13.5406c-.2537.4905-.0618 1.0939.4288 1.3476.4905.2537 1.0939.0618 1.3476-.4288L6 14zM7.5 11.1l.8883.4595.0049-.0098zM9.24 10V9q-.0115 0-.0232.0003zm12.7 2.5-.9682-.25-.0004.0014zm-1.54 6 .9683.25.0003-.0014zM18.45 20l.0067-1H18.45zm-15.8642-.5858.707-.7071zM3 5c0-.5523-.4477-1-1-1s-1 .4477-1 1h2m7.0739-2v1c.2637 0 .4965.1595.5916.3959l.9278-.3733.9277-.3732C12.1191 2.6505 11.1485 2 10.0739 2zm1.5194 1.0226-.8328.5536 1.0192 1.5331.8328-.5536.8327-.5537-1.0192-1.533zm1.0192 1.533-.9278.3734c.2777.69.9474 1.138 1.6874 1.138v-2a.182.182 0 0 1 .1681.1154zm.7596.5114v1h4.9915v-2h-4.9915zm4.9915 0v1c.357 0 .6364.2861.6364.6268h2c0-1.4563-1.1859-2.6268-2.6364-2.6268zM15.5 20v-1H3.6364v2H15.5zM3.6364 20v-1C3.2794 19 3 18.7139 3 18.3732H1C1 19.8295 2.1859 21 3.6364 21zM2 18.3732h1V4.6268H1v13.7464zM2 4.6268h1C3 4.286 3.2794 4 3.6364 4V2C2.1859 2 1 3.1705 1 4.6268zM3.6364 3v1h6.4375V2H3.6364zM20 7.6938h-1V10h2V7.6938zM6 14l.8882.4594 1.5-2.9L7.5 11.1l-.8882-.4594-1.5 2.9zm1.5-2.9.8932.4497a1 1 0 0 1 .3588-.3955l-.5344-.8453-.5343-.8452a3 3 0 0 0-1.0765 1.1866zm.7176-.7911.5344.8453a1 1 0 0 1 .5112-.1545L9.24 10l-.0232-.9997a3 3 0 0 0-1.5335.4634zM9.24 10v1H20V9H9.24zM20 10l.0018 1a1 1 0 0 1 .4408.1015l.439-.8984.4391-.8985A3 3 0 0 0 19.9982 9zm.8816.2031-.439.8984a1 1 0 0 1 .3509.2854l.7901-.613.79-.6131a3 3 0 0 0-1.0529-.8562zm.702.5708-.7901.613a1 1 0 0 1 .1893.4109l.9794-.2022.9793-.2023a3 3 0 0 0-.5679-1.2325zm.3786.8217-.9794.2022a1 1 0 0 1-.011.4522l.9682.25.9682.25a3 3 0 0 0 .0333-1.3567zM21.94 12.5l-.9686-.2486-1.54 6L20.4 18.5l.9686.2486 1.54-6zm-1.54 6-.9683-.25a1 1 0 0 1-.3585.5427l.6097.7926.6097.7926a3 3 0 0 0 1.0757-1.6279zm-.7171 1.0853-.6097-.7926a1 1 0 0 1-.6165.2073l-.0067 1-.0067 1a3 3 0 0 0 1.8493-.6221zM18.45 20v-1H4v2h14.45zM4 20v-1a1 1 0 0 1-.7071-.2929l-.7071.7071-.7071.7071A3 3 0 0 0 4 21zm-1.4142-.5858.707-.7071A1 1 0 0 1 3 18H1c0 .7957.316 1.5587.8787 2.1213zM2 18h1V5H1v13z"/></svg>