<svg xmlns="http://www.w3.org/2000/svg" fill="none" viewBox="0 0 24 24"><path stroke="currentColor" stroke-linecap="round" stroke-linejoin="round" stroke-width="2" d="m15.5001 12.3278 4.9729-5.5353c.1946-.189.2914-.2836.3609-.394a1.08 1.08 0 0 0 .1355-.316c.0307-.1245.0307-.2568.0307-.5189 0-.595.158-1.4307-.123-1.9668C20.5402 2.9542 19.83 3 19.1997 3h-14.4c-.63 0-1.3402-.0454-1.677.5968-.1226.234-.1226.5403-.1226 1.1526 0 .8215-.085 1.4479.5274 2.0431L8.473 12.336c.3925.3815.527.6955.527 1.2286v8.4353l5.9727-2.5877v-5.8476c0-.5494.1408-.8613.5235-1.2332z"/></svg>