<svg xmlns="http://www.w3.org/2000/svg" fill="none" viewBox="0 0 24 24"><path stroke="currentColor" stroke-width="2" d="m11.4855 2.8087-4 2.4A1 1 0 0 0 7 6.0662v8.8676a1 1 0 0 0 .4855.8575l4 2.4a1 1 0 0 0 1.029 0l4-2.4A1 1 0 0 0 17 14.9338V6.0662a1 1 0 0 0-.4855-.8575l-4-2.4a1 1 0 0 0-1.029 0Z"/><path stroke="currentColor" stroke-width="2" d="m3.4786 12.2076 7.9999-4.889a1 1 0 0 1 1.0429 0l8.0001 4.889a1 1 0 0 1 .4785.8532v4.873a1 1 0 0 1-.4855.8575l-3.9893 2.3936a1 1 0 0 1-1.0445-.0095L12.53 19.3312a1 1 0 0 0-1.06 0l-2.9507 1.8442a1 1 0 0 1-1.0445.0095l-3.9893-2.3936A1 1 0 0 1 3 17.9338v-4.873a1 1 0 0 1 .4785-.8532Z"/></svg>