<svg xmlns="http://www.w3.org/2000/svg" fill="none" viewBox="0 0 24 24"><path stroke="currentColor" stroke-linecap="round" stroke-linejoin="round" stroke-width="2" d="M2 3h1m19 0h-1m0 0v11c0 1.105-.895 2-2 2H5c-1.105 0-2-.895-2-2V3m18 0H3m9-1.5V3M7 22l3-6m4 0 3 6"/><path stroke="currentColor" stroke-linecap="round" stroke-width="2" d="M6.8372 10.6111a2 2 0 0 0 2.053.8505 2.0003 2.0003 0 0 0 1.4577-2.727 2 2 0 0 0-1.3478-1.171"/><path stroke="currentColor" stroke-linecap="round" stroke-linejoin="round" stroke-width="2" d="M14 7.5h3m-3 4h3"/></svg>