<svg xmlns="http://www.w3.org/2000/svg" fill="none" viewBox="0 0 24 24"><g clip-path="url(#scale-computing-a)"><g clip-path="url(#scale-computing-b)"><path fill="red" fill-opacity=".7" d="M15.0005-.0254A.026.026 0 0 1 15.0259 0v8.9395l8.957-8.957a.025.025 0 0 1 .0352 0 .0254.0254 0 0 1 0 .035L15.061 8.9747h8.9444A.026.026 0 0 1 24.0308 9a.026.026 0 0 1-.0254.0254h-8.9795v2.9443h8.9795a.026.026 0 0 1 .0254.0254.026.026 0 0 1-.0254.0254h-8.9795v2.9541h8.9795a.026.026 0 0 1 .0254.0254.026.026 0 0 1-.0254.0254H15.061l8.9571 8.957a.0255.0255 0 0 1 0 .0352.025.025 0 0 1-.0352 0l-8.957-8.9571V24a.026.026 0 0 1-.0254.0254.0257.0257 0 0 1-.0254-.0254v-8.9746h-2.9492V24a.026.026 0 0 1-.0254.0254.0257.0257 0 0 1-.0254-.0254v-8.9746H9.0259V24a.026.026 0 0 1-.0254.0254A.0257.0257 0 0 1 8.975 24v-8.9395l-8.957 8.9571a.025.025 0 0 1-.0352 0 .025.025 0 0 1 0-.0352l8.957-8.957H.0054A.0257.0257 0 0 1-.02 15a.0257.0257 0 0 1 .0254-.0254H8.975v-2.9541H.0054a.026.026 0 0 1-.0254-.0254.0257.0257 0 0 1 .0254-.0254H8.975V9.0254H.0054A.0257.0257 0 0 1-.02 9a.0257.0257 0 0 1 .0254-.0254h8.9345L-.017.0176a.025.025 0 0 1 0-.0352.025.025 0 0 1 .0352 0l8.957 8.957V0a.0257.0257 0 0 1 .0254-.0254A.026.026 0 0 1 9.0259 0v8.9746h2.9492V0a.0257.0257 0 0 1 .0254-.0254.026.026 0 0 1 .0254.0254v8.9746h2.9492V0a.0257.0257 0 0 1 .0254-.0254m-5.9395 15h2.9141v-2.9141zm2.9649 0h2.914l-2.914-2.9141zm2.9492-.0351v-2.919h-2.9189zm-5.9492 0 2.9189-2.919h-2.919zm0-2.9698h2.9092L9.0259 9.0605zm3.04 0h2.9092V9.0605zm-.0908-.0302V9.0254h-2.914zm.0508 0 2.914-2.9141h-2.914z" opacity=".9"/><circle cx="12" cy="12" r="11" stroke="red" stroke-linecap="round" stroke-width=".1"/></g><path fill="currentColor" fill-rule="evenodd" d="M12.1364 1.0008a10.98 10.98 0 0 1 3.4251.593c4.1986 1.4367 7.1228 5.2555 7.4146 9.6834s-2.1057 8.5974-6.0795 10.5728c-3.9737 1.9753-8.7453 1.3695-12.0992-1.5363C.818 16.8661-.1601 11.0821 2.4644 6.5179c1.989-3.4589 5.624-5.4821 9.436-5.5174q.118-.0011.236.0003m-.3448 4.0714c-.0601.0006-.1176-.012-.1642.0336-.1005.0985-.9948 2.2662-1.1384 2.5966L5.6114 18.9795c.233-.0196.6544-.0074.8984-.0078l1.7118-.0014c.1384-.3852.4706-1.0826.647-1.4867l1.0837-2.5157 2.8816-6.6602.8811-2.0156c.1637-.376.374-.8319.5052-1.2134-.8067-.006-1.6236.0077-2.4286-.0065m4.2098.0036c-.0788.2544-.3541.8563-.4709 1.1283l-1.0449 2.3973-2.7548 6.3726a165 165 0 0 0-1.1223 2.5922c-.1865.4321-.4437.977-.5973 1.4031l2.5964-.003 3.9199-9.0412 1.2857-2.9766c.2292-.5244.6201-1.348.8022-1.867-.8615-.006-1.7581.011-2.614-.0057" clip-rule="evenodd"/></g><defs><clipPath id="scale-computing-a"><path fill="#fff" d="M0 0h24v24H0z"/></clipPath><clipPath id="scale-computing-b"><path fill="#fff" d="M0 0h24v24H0z"/></clipPath></defs></svg>