<svg xmlns="http://www.w3.org/2000/svg" fill="none" viewBox="0 0 24 24"><g clip-path="url(#server-envelope-a)"><g clip-path="url(#server-envelope-b)"><path fill="red" fill-opacity=".7" d="M15.0005-.0254A.026.026 0 0 1 15.0259 0v8.9395l8.957-8.957a.025.025 0 0 1 .0352 0 .0254.0254 0 0 1 0 .035L15.061 8.9747h8.9444A.026.026 0 0 1 24.0308 9a.026.026 0 0 1-.0254.0254h-8.9795v2.9443h8.9795a.026.026 0 0 1 .0254.0254.026.026 0 0 1-.0254.0254h-8.9795v2.9541h8.9795a.026.026 0 0 1 .0254.0254.026.026 0 0 1-.0254.0254H15.061l8.9571 8.957a.0255.0255 0 0 1 0 .0352.025.025 0 0 1-.0352 0l-8.957-8.9571V24a.026.026 0 0 1-.0254.0254.0257.0257 0 0 1-.0254-.0254v-8.9746h-2.9492V24a.026.026 0 0 1-.0254.0254.0257.0257 0 0 1-.0254-.0254v-8.9746H9.0259V24a.026.026 0 0 1-.0254.0254A.0257.0257 0 0 1 8.975 24v-8.9395l-8.957 8.9571a.025.025 0 0 1-.0352 0 .025.025 0 0 1 0-.0352l8.957-8.957H.0054A.0257.0257 0 0 1-.02 15a.0257.0257 0 0 1 .0254-.0254H8.975v-2.9541H.0054a.026.026 0 0 1-.0254-.0254.0257.0257 0 0 1 .0254-.0254H8.975V9.0254H.0054A.0257.0257 0 0 1-.02 9a.0257.0257 0 0 1 .0254-.0254h8.9345L-.017.0176a.025.025 0 0 1 0-.0352.025.025 0 0 1 .0352 0l8.957 8.957V0a.0257.0257 0 0 1 .0254-.0254A.026.026 0 0 1 9.0259 0v8.9746h2.9492V0a.0257.0257 0 0 1 .0254-.0254.026.026 0 0 1 .0254.0254v8.9746h2.9492V0a.0257.0257 0 0 1 .0254-.0254m-5.9395 15h2.9141v-2.9141zm2.9649 0h2.914l-2.914-2.9141zm2.9492-.0351v-2.919h-2.9189zm-5.9492 0 2.9189-2.919h-2.919zm0-2.9698h2.9092L9.0259 9.0605zm3.04 0h2.9092V9.0605zm-.0908-.0302V9.0254h-2.914zm.0508 0 2.914-2.9141h-2.914z" opacity=".9"/><path stroke="red" stroke-linecap="round" stroke-width=".1" d="M4 21c-1.6568 0-3-1.3431-3-3V6c0-1.6569 1.3432-3 3-3h16c1.6569 0 3 1.3431 3 3v12c0 1.6569-1.3431 3-3 3z"/><path fill="#00f" d="M17.7354 11.4805q.2353.0092.4658.0361a.026.026 0 0 1-.0059-.0166.025.025 0 0 1 .0244-.0254h.4971a.026.026 0 0 1 .0254.0254.026.026 0 0 1-.0254.0254h-.4463a5.98 5.98 0 0 1 1.6328.4492H21c.55 0 1.0481.2202 1.4131.5762l.0303-.0293a.0246.0246 0 0 1 .0351 0 .0246.0246 0 0 1 0 .0351l-.0303.0293c.3566.3651.5772.8636.5772 1.4141v1.0957c.1806.4144.3156.8529.3994 1.3096v-.1729a.0244.0244 0 0 1 .0244-.0244.025.025 0 0 1 .0254.0244v.4961c.0323.2527.0508.5101.0508.7715 0 .2608-.0186.5175-.0508.7695v.4473a.026.026 0 0 1-.0254.0254.025.025 0 0 1-.0244-.0254v-.124a5.97 5.97 0 0 1-.3994 1.3095V21c0 1.1183-.9071 2.0253-2.0254 2.0254h-1.0967a5.98 5.98 0 0 1-1.3105.3994h.124a.025.025 0 0 1 .0254.0244.026.026 0 0 1-.0254.0254h-.4463a6.1 6.1 0 0 1-.7705.0508 6.1 6.1 0 0 1-.7705-.0508h-.4971a.025.025 0 0 1-.0244-.0254.0244.0244 0 0 1 .0244-.0244h.1738a5.98 5.98 0 0 1-1.3095-.3994H14c-1.1184 0-2.0254-.907-2.0254-2.0254v-1.0967a5.98 5.98 0 0 1-.4492-1.6338v.4473a.026.026 0 0 1-.0254.0254.026.026 0 0 1-.0254-.0254v-.4971a.025.025 0 0 1 .0254-.0244.026.026 0 0 1 .0166.0059 6 6 0 0 1-.0361-.4658c-.0027-.004-.0059-.0077-.0059-.0127v-.4961a.025.025 0 0 1 .0068-.0166 5.99 5.99 0 0 1 .4932-2.1143V14c0-.5503.2199-1.049.5762-1.4141l-.0293-.0293a.0246.0246 0 0 1 0-.0351.0246.0246 0 0 1 .0351 0l.0293.0293A2.018 2.018 0 0 1 14 11.9746h1.0957a5.99 5.99 0 0 1 2.1143-.4932.025.025 0 0 1 .0166-.0068h.4961c.005 0 .0087.0032.0127.0059m-6.0381 11.8222a.025.025 0 0 1 0 .0352l-.1797.1797-.0352-.0352.1797-.1797a.025.025 0 0 1 .0352 0m11.6406 0 .1797.1797-.0352.0352-.1797-.1797a.025.025 0 0 1 .0352-.0352m-10.0957.1055c.0843.011.1705.0166.2578.0166h.248a.025.025 0 0 1 .0254.0244.026.026 0 0 1-.0254.0254H13.5a2 2 0 0 1-.2646-.0176.025.025 0 0 1-.0215-.0273.025.025 0 0 1 .0283-.0215m1.5.0166a.025.025 0 0 1 .0254.0244.026.026 0 0 1-.0254.0254h-.4971a.025.025 0 0 1-.0244-.0254.0243.0243 0 0 1 .0244-.0244zm.9932 0a.025.025 0 0 1 .0253.0244.0257.0257 0 0 1-.0253.0254h-.4961a.0257.0257 0 0 1-.0254-.0254.025.025 0 0 1 .0254-.0244zm3.9755 0a.025.025 0 0 1 .0245.0244.0255.0255 0 0 1-.0245.0254h-.497a.0257.0257 0 0 1-.0254-.0254.025.025 0 0 1 .0254-.0244zm.9932 0a.025.025 0 0 1 .0254.0244.026.026 0 0 1-.0254.0254h-.4971a.025.025 0 0 1-.0244-.0254.0244.0244 0 0 1 .0244-.0244zm1.0029-.0166a.0254.0254 0 0 1 .0284.0215.025.025 0 0 1-.0215.0273 2.05 2.05 0 0 1-.2647.0176h-.248a.0257.0257 0 0 1-.0254-.0254.025.025 0 0 1 .0254-.0244h.248c.0873 0 .1736-.0056.2578-.0166m-6.4814-.3828a5.95 5.95 0 0 0 1.9668.4414h.0166a.025.025 0 0 1-.0078-.0176.025.025 0 0 1 .0254-.0244h.4961a.025.025 0 0 1 .0253.0244c0 .0085-.006.014-.0126.0186a6 6 0 0 0 .4658-.0362.026.026 0 0 1 .0185-.0068h.0371a5.93 5.93 0 0 0 1.5166-.3994zm-2.9277-.0088c.1358.1043.2858.1913.4462.2578a.026.026 0 0 1 .0137.0332c-.0053.0125-.0205.0179-.0332.0127a2.02 2.02 0 0 1-.457-.2646.0243.0243 0 0 1-.0049-.0342.025.025 0 0 1 .0352-.0049m10.3886.0049a.0246.0246 0 0 1-.0039.0342 2.03 2.03 0 0 1-.458.2646.0247.0247 0 0 1-.0322-.0127.0254.0254 0 0 1 .0127-.0332 1.98 1.98 0 0 0 .4463-.2578.025.025 0 0 1 .0351.0049M12.416 22.584a.0246.0246 0 0 1 0 .0351l-.3594.3594a.0246.0246 0 0 1-.0351 0 .0246.0246 0 0 1 0-.0351l.3594-.3594a.0246.0246 0 0 1 .0351 0m10.2031 0 .3594.3594a.0246.0246 0 0 1 0 .0351.0246.0246 0 0 1-.0351 0l-.3594-.3594a.0246.0246 0 0 1 0-.0351.0246.0246 0 0 1 .0351 0M12.0254 21c0 1.0908.8838 1.9746 1.9746 1.9746h.9844a6.046 6.046 0 0 1-2.959-2.959zm3.081-8.9746a5.98 5.98 0 0 0-1.8134 1.2324l.3418.3418a.025.025 0 0 1-.0352.0352l-.3418-.3418a5.98 5.98 0 0 0-1.2324 1.8134v4.7852a5.993 5.993 0 0 0 3.081 3.083h4.7862a5.993 5.993 0 0 0 3.082-3.083v-4.7852a5.98 5.98 0 0 0-1.2334-1.8134l-.3408.3418a.025.025 0 0 1-.0352-.0352l.3409-.3418a5.98 5.98 0 0 0-1.8135-1.2324zm7.8682 7.9892a6.046 6.046 0 0 1-2.959 2.96H21c1.0907-.0001 1.9746-.8839 1.9746-1.9746zm-11.2998 2.1905c.0665.1603.1536.3105.2578.4463a.0255.0255 0 0 1-.0039.0351.0254.0254 0 0 1-.0351-.0039 2.03 2.03 0 0 1-.2647-.458.0245.0245 0 0 1 .0137-.0322.0246.0246 0 0 1 .0322.0127m11.6328-.0127a.0247.0247 0 0 1 .0127.0322 2.03 2.03 0 0 1-.2646.458.025.025 0 0 1-.0391-.0312 1.98 1.98 0 0 0 .2578-.4463.0254.0254 0 0 1 .0332-.0127m-10.1728-.3272a.025.025 0 0 1 0 .0352l-.3594.3594a.025.025 0 0 1-.0352-.0352l.3594-.3594a.025.025 0 0 1 .0352 0m8.7656 0 .3594.3594a.025.025 0 0 1-.0352.0352l-.3594-.3594a.025.025 0 0 1 .0352-.0352M11.5 21.1758a.0257.0257 0 0 1 .0254.0254v.248c0 .0873.0056.1736.0166.2578a.026.026 0 0 1-.0215.0284.0254.0254 0 0 1-.0283-.0215 2.05 2.05 0 0 1-.0176-.2647v-.248a.0257.0257 0 0 1 .0254-.0254m11.9492 0a.0257.0257 0 0 1 .0254.0254v.248c0 .0896-.0063.1781-.0176.2647a.025.025 0 0 1-.0273.0215.0254.0254 0 0 1-.0215-.0284 2 2 0 0 0 .0166-.2578v-.248a.025.025 0 0 1 .0244-.0254m-9.5957-.0293a.0246.0246 0 0 1 0 .0351l-.3594.3594a.0246.0246 0 0 1-.0351 0 .0246.0246 0 0 1 0-.0351l.3594-.3594a.0246.0246 0 0 1 .0351 0m7.3281 0 .3594.3594a.0246.0246 0 0 1 0 .0351.0246.0246 0 0 1-.0351 0l-.3594-.3594a.0246.0246 0 0 1 0-.0351.0246.0246 0 0 1 .0351 0m-6.6093-.7188a.025.025 0 0 1 0 .0352l-.3594.3594a.025.025 0 0 1-.0352-.0352l.3594-.3594a.025.025 0 0 1 .0352 0m5.8906 0 .3594.3594a.025.025 0 0 1-.0352.0352l-.3594-.3594a.025.025 0 0 1 .0352-.0352M11.5 20.1826a.025.025 0 0 1 .0254.0244v.4971a.026.026 0 0 1-.0254.0254.026.026 0 0 1-.0254-.0254v-.4971a.025.025 0 0 1 .0254-.0244m11.9492 0a.025.025 0 0 1 .0254.0244v.4971a.026.026 0 0 1-.0254.0254.025.025 0 0 1-.0244-.0254v-.4971a.0244.0244 0 0 1 .0244-.0244m-8.1582-.4736a.0246.0246 0 0 1 0 .0351l-.3594.3594a.0246.0246 0 0 1-.0351 0 .0246.0246 0 0 1 0-.0351l.3594-.3594a.0246.0246 0 0 1 .0351 0m4.4531 0 .3594.3594a.0246.0246 0 0 1 0 .0351.0246.0246 0 0 1-.0351 0l-.3594-.3594a.0246.0246 0 0 1 0-.0351.0246.0246 0 0 1 .0351 0m-7.7695-4.4834a5.96 5.96 0 0 0-.4492 2.2744c0 .8051.1605 1.5725.4492 2.2734zm11.0508 4.5478a5.93 5.93 0 0 0 .3994-1.5175v-.0362a.026.026 0 0 1 .0068-.0185 6 6 0 0 0 .0362-.4658c-.0046.0066-.0101.0126-.0186.0126a.025.025 0 0 1-.0244-.0253v-.4961a.025.025 0 0 1 .0244-.0254c.0069 0 .013.0031.0176.0078a5.94 5.94 0 0 0-.4414-1.9834zM11.5 19.1885a.0257.0257 0 0 1 .0254.0254v.497a.0255.0255 0 0 1-.0508 0v-.497a.0257.0257 0 0 1 .0254-.0254m11.9492 0a.0257.0257 0 0 1 .0254.0254v.497a.0255.0255 0 0 1-.0254.0245.025.025 0 0 1-.0244-.0245v-.497a.025.025 0 0 1 .0244-.0254m-7.4394-.1983a.025.025 0 0 1 0 .0352l-.3594.3594a.025.025 0 0 1-.0352-.0352l.3594-.3594a.025.025 0 0 1 .0352 0m3.0156 0 .3594.3594a.025.025 0 0 1-.0352.0352l-.3594-.3594a.025.025 0 0 1 .0352-.0352m-2.2969-.7187a.0246.0246 0 0 1 0 .0351l-.3594.3594a.0246.0246 0 0 1-.0351 0 .0246.0246 0 0 1 0-.0351l.3594-.3594a.0246.0246 0 0 1 .0351 0m1.5781 0 .3594.3594a.0246.0246 0 0 1 0 .0351.0246.0246 0 0 1-.0351 0l-.3594-.3594a.0246.0246 0 0 1 0-.0351.0246.0246 0 0 1 .0351 0m-.8593-.7188a.025.025 0 0 1 0 .0352l-.3594.3594a.025.025 0 0 1-.0352-.0352l.3594-.3594a.025.025 0 0 1 .0352 0m.1406 0 .3594.3594a.025.025 0 0 1-.0352.0352l-.3594-.3594a.025.025 0 0 1 .0352-.0352m-.7188-.7187.3594.3594a.0246.0246 0 0 1 0 .0351.0246.0246 0 0 1-.0351 0l-.3594-.3594a.0246.0246 0 0 1 0-.0351.0246.0246 0 0 1 .0351 0m1.2969 0a.0246.0246 0 0 1 0 .0351l-.3594.3594a.0246.0246 0 0 1-.0351 0 .0246.0246 0 0 1 0-.0351l.3594-.3594a.0246.0246 0 0 1 .0351 0m-6.666-.626a.025.025 0 0 1 .0254.0244v.4971a.026.026 0 0 1-.0254.0254.026.026 0 0 1-.0254-.0254v-.4971a.025.025 0 0 1 .0254-.0244m4.6504-.0928.3594.3594a.025.025 0 0 1-.0352.0352l-.3594-.3594a.025.025 0 0 1 .0352-.0352m2.7344 0a.025.025 0 0 1 0 .0352l-.3594.3594a.025.025 0 0 1-.0352-.0352l.3594-.3594a.025.025 0 0 1 .0352 0m-3.4532-.7187.3594.3594a.0246.0246 0 0 1 0 .0351.0246.0246 0 0 1-.0351 0l-.3594-.3594a.0246.0246 0 0 1 0-.0351.0246.0246 0 0 1 .0351 0m4.1719 0a.0246.0246 0 0 1 0 .0351l-.3594.3594a.0246.0246 0 0 1-.0351 0 .0246.0246 0 0 1 0-.0351l.3594-.3594a.0246.0246 0 0 1 .0351 0M11.5 15.2139a.0257.0257 0 0 1 .0254.0254v.4961a.026.026 0 0 1-.0254.0253.0257.0257 0 0 1-.0254-.0253v-.4961a.0257.0257 0 0 1 .0254-.0254m11.9492 0a.0257.0257 0 0 1 .0254.0254v.4961a.0257.0257 0 0 1-.0254.0253.025.025 0 0 1-.0244-.0253v-.4961a.025.025 0 0 1 .0244-.0254m-8.7363-.5362.3594.3594a.025.025 0 0 1-.0352.0352l-.3594-.3594a.025.025 0 0 1 .0352-.0352m5.6094 0a.025.025 0 0 1 0 .0352l-.3594.3594a.025.025 0 0 1-.0352-.0352l.3594-.3594a.025.025 0 0 1 .0352 0m-.3057-2.6523a6.046 6.046 0 0 1 2.958 2.959V14c0-.5367-.2142-1.023-.5615-1.3789l-.294.2949a.0246.0246 0 0 1-.0351 0 .0246.0246 0 0 1 0-.0351l.2939-.295A1.968 1.968 0 0 0 21 12.0254zm-6.0166 0a1.969 1.969 0 0 0-1.3789.5605l.2949.295a.0246.0246 0 0 1 0 .0351.0246.0246 0 0 1-.0351 0l-.295-.2949A1.969 1.969 0 0 0 12.0254 14v.9824a6.046 6.046 0 0 1 2.958-2.957zm-2.5 2.1953a.025.025 0 0 1 .0254.0244v.4971a.026.026 0 0 1-.0254.0254.026.026 0 0 1-.0254-.0254v-.4971a.025.025 0 0 1 .0254-.0244m11.9492 0a.025.025 0 0 1 .0254.0244v.4971a.026.026 0 0 1-.0254.0254.025.025 0 0 1-.0244-.0254v-.4971a.0243.0243 0 0 1 .0244-.0244m-9.4551-.2617.3594.3594a.0246.0246 0 0 1 0 .0351.0246.0246 0 0 1-.0351 0l-.3594-.3594a.0246.0246 0 0 1 0-.0351.0246.0246 0 0 1 .0351 0m7.0469 0a.0246.0246 0 0 1 0 .0351l-.3594.3594a.0246.0246 0 0 1-.0351 0 .0246.0246 0 0 1 0-.0351l.3594-.3594a.0246.0246 0 0 1 .0351 0m-9.5205-.7451a.0256.0256 0 0 1 .0215.0283 2 2 0 0 0-.0166.2578v.248a.026.026 0 0 1-.0254.0254.026.026 0 0 1-.0254-.0254V13.5c0-.0896.0063-.1781.0176-.2646a.0254.0254 0 0 1 .0283-.0215m11.9092 0a.025.025 0 0 1 .0273.0215c.0113.0865.0176.175.0176.2646v.248a.026.026 0 0 1-.0254.0254.025.025 0 0 1-.0244-.0254V13.5q0-.1312-.0166-.2578a.025.025 0 0 1 .0215-.0283m-11.501-.9512a.0254.0254 0 0 1 .0039.0352 1.97 1.97 0 0 0-.2578.4462.025.025 0 0 1-.0322.0137.0257.0257 0 0 1-.0137-.0332 2.02 2.02 0 0 1 .2647-.457.025.025 0 0 1 .0351-.0049m11.127.0049c.1069.1392.1964.2926.2646.457.0052.0127-.0002.0279-.0127.0332a.026.026 0 0 1-.0332-.0137 1.97 1.97 0 0 0-.2578-.4462.025.025 0 0 1 .0049-.0352.0243.0243 0 0 1 .0342.0049m-10.8584-.1055a.025.025 0 0 1-.0352.0352l-.1797-.1797.0352-.0352zm10.8203-.1445-.1797.1797a.025.025 0 0 1-.0352-.0352l.1797-.1797zM17.5 11.5254a5.96 5.96 0 0 0-2.2744.4492h4.5478a5.96 5.96 0 0 0-2.2734-.4492m-4.7422.1172a.025.025 0 0 1-.0137.0322 1.97 1.97 0 0 0-.4462.2578.0254.0254 0 0 1-.0352-.0039.025.025 0 0 1 .0049-.0351 2.02 2.02 0 0 1 .457-.2647.0257.0257 0 0 1 .0332.0137m9.4668-.0137c.1646.0683.3187.1576.458.2647a.0254.0254 0 0 1 .0039.0351.0255.0255 0 0 1-.0351.0039 1.98 1.98 0 0 0-.4463-.2578.0246.0246 0 0 1-.0127-.0322.0245.0245 0 0 1 .0322-.0137m-8.4766-.1543a.026.026 0 0 1 .0254.0254.026.026 0 0 1-.0254.0254H13.5q-.1312 0-.2578.0166a.0256.0256 0 0 1-.0283-.0215.0254.0254 0 0 1 .0215-.0283 2 2 0 0 1 .2646-.0176zm7.7012 0c.0896 0 .1781.0063.2647.0176a.0254.0254 0 0 1 .0215.0283.026.026 0 0 1-.0284.0215 2 2 0 0 0-.2578-.0166h-.248a.0257.0257 0 0 1-.0254-.0254.0257.0257 0 0 1 .0254-.0254zm-6.707 0a.026.026 0 0 1 .0254.0254.026.026 0 0 1-.0254.0254h-.4971a.025.025 0 0 1-.0244-.0254.025.025 0 0 1 .0244-.0254zm.9932 0a.0257.0257 0 0 1 .0253.0254.026.026 0 0 1-.0253.0254h-.4961a.0257.0257 0 0 1-.0254-.0254.0257.0257 0 0 1 .0254-.0254zm.9941 0a.026.026 0 0 1 .0254.0254.026.026 0 0 1-.0254.0254h-.4971a.025.025 0 0 1-.0244-.0254.025.025 0 0 1 .0244-.0254zm2.9814 0a.0254.0254 0 0 1 0 .0508h-.497a.0257.0257 0 0 1-.0254-.0254.0257.0257 0 0 1 .0254-.0254zm.9932 0a.026.026 0 0 1 .0254.0254.026.026 0 0 1-.0254.0254h-.4971a.025.025 0 0 1-.0244-.0254.025.025 0 0 1 .0244-.0254z" opacity=".9"/></g><path stroke="currentColor" stroke-linecap="round" stroke-width="2" d="M7 20H4c-1.105 0-2-.895-2-2V6c0-1.105.895-2 2-2h16c1.105 0 2 .895 2 2v3M18.5 8H18M10 7.5v1M6 7.5v1"/><path stroke="currentColor" stroke-linecap="round" stroke-linejoin="round" stroke-width="2" d="M3 12h5"/><path stroke="currentColor" stroke-linecap="round" stroke-width="2" d="M6 15.5v1"/><path stroke="currentColor" stroke-linecap="round" stroke-linejoin="round" stroke-width="2" d="M22 15.5c-1.3335.7058-5.5 2.5-5.5 2.5s-4.1649-1.7942-5.5-2.5"/><path stroke="currentColor" stroke-linecap="round" stroke-linejoin="round" stroke-width="2" d="M11 13.5a.5.5 0 0 1 .5-.5h10a.5.5 0 0 1 .5.5v8a.5.5 0 0 1-.5.5h-10a.5.5 0 0 1-.5-.5z"/></g><defs><clipPath id="server-envelope-a"><path fill="#fff" d="M0 0h24v24H0z"/></clipPath><clipPath id="server-envelope-b"><path fill="#fff" d="M0 0h24v24H0z"/></clipPath></defs></svg>