<svg xmlns="http://www.w3.org/2000/svg" fill="none" viewBox="0 0 24 24"><path fill="currentColor" d="M4 4v1h16V3H4zm18 2h-1v12h2V6zm-2 14v-1H4v2h16zM2 18h1V6H1v12zm2 2v-1c-.5523 0-1-.4477-1-1H1c0 1.6569 1.3432 3 3 3zm18-2h-1c0 .5523-.4477 1-1 1v2c1.6569 0 3-1.3431 3-3zM20 4v1c.5523 0 1 .4477 1 1h2c0-1.6569-1.3431-3-3-3zM4 4V3C2.3432 3 1 4.3431 1 6h2c0-.5523.4477-1 1-1z"/><path stroke="currentColor" stroke-linecap="round" stroke-width="2" d="M18.5 8H18M18.5 16H18M6 15.5v1M6 7.5v1M10 7.5v1"/><path stroke="currentColor" stroke-linecap="round" stroke-linejoin="round" stroke-width="2" d="M3 12h18"/></svg>