<svg xmlns="http://www.w3.org/2000/svg" fill="none" viewBox="0 0 24 24"><path stroke="currentColor" stroke-linecap="round" stroke-linejoin="round" stroke-width="2" d="M22 11V9c0-.552-.448-1-1-1H4c-1.105 0-2 .895-2 2v8c0 1.105.895 2 2 2h17c.552 0 1-.448 1-1v-1.845M9 18v2M9 8v2M9 13.5v1"/><path stroke="currentColor" stroke-linecap="round" stroke-width="2" d="M22 17c-1.6569 0-3-1.3431-3-3s1.3431-3 3-3"/><path stroke="currentColor" stroke-linecap="round" stroke-linejoin="round" stroke-width="2" d="m19.9999 8-1.3256-4.3087c-.3566-1.1589-1.6541-1.7365-2.7539-1.2259L4 8.0001"/></svg>