<svg xmlns="http://www.w3.org/2000/svg" fill="none" viewBox="0 0 24 24"><path fill="#1763cf" d="M6.52 1c-1.93 0-3.5 1.57-3.5 3.5v4.335C3.745 8.015 4.8048 7.5 5.9798 7.5h13.5004c.84 0 1.5196-.6795 1.5196-1.5195V3.5c0-1.38-1.12-2.5-2.5-2.5zm14.4799 6.9854c-.42.32-.9496.5146-1.5196.5146H5.9799c-1.295 0-2.4.84-2.795 2H8.27c1.515 0 2.75 1.235 2.75 2.75v2.25h8.4751c.83 0 1.5049-.6749 1.5049-1.5049zM2.7699 11.5c-.9665 0-1.75.7835-1.75 1.75v5.5c0 .9665.7835 1.75 1.75 1.75h5.5c.9665 0 1.75-.7835 1.75-1.75v-5.5c0-.9665-.7835-1.75-1.75-1.75zm5.4493 2.25-.9688 4.499-1.1582.001-.5723-2.6992-.5986 2.7002h-1.169l-.9316-4.5h.9551l.5742 2.9697.5713-2.9697h1.1709l.5977 2.9697.5605-2.9697zm12.7807 2.2402c-.42.32-.9399.5098-1.5049.5098h-8.4751v2.25c0 1.515-1.235 2.75-2.75 2.75H3.65c.635.905 1.685 1.5 2.87 1.5H18.5c1.38 0 2.5-1.12 2.5-2.5z"/></svg>