<svg xmlns="http://www.w3.org/2000/svg" fill="none" viewBox="0 0 24 24"><path fill="#1763cf" fill-rule="evenodd" d="M4.8572 2A2.857 2.857 0 0 0 2 4.8571V19.143A2.8571 2.8571 0 0 0 4.8572 22h14.2857A2.857 2.857 0 0 0 22 19.1429V4.8571A2.857 2.857 0 0 0 19.1429 2zm4.0071 12.2144-2.8143.2713a5.507 5.507 0 0 0 1.7429 3.6642 6.243 6.243 0 0 0 4.1714 1.25 8.22 8.22 0 0 0 3.1143-.5214 4.107 4.107 0 0 0 1.9286-1.5998 4.465 4.465 0 0 0 .1071-4.5787 3.85 3.85 0 0 0-1.5785-1.4286 13.9 13.9 0 0 0-3.1143-1.0358 7.5 7.5 0 0 1-2.6572-.957 1.1 1.1 0 0 1-.4285-.8713 1.036 1.036 0 0 1 .4571-.8859A3.33 3.33 0 0 1 11.7643 7a2.857 2.857 0 0 1 1.8286.4928 2.42 2.42 0 0 1 .8 1.5786L17.25 8.95a4.185 4.185 0 0 0-1.4285-3.1571q-1.3643-1.1785-4.0572-1.1785a7.28 7.28 0 0 0-2.8571.4928 3.95 3.95 0 0 0-1.7857 1.4286 3.7646 3.7646 0 0 0 .7143 4.9215A7.94 7.94 0 0 0 11.1 12.8859c1.2072.3 1.9786.507 2.3143.6285a2.314 2.314 0 0 1 1.0357.6215c.2026.2416.3094.5491.3.8642a1.7868 1.7868 0 0 1-.7142 1.3857 3.257 3.257 0 0 1-2.1.5856 3.136 3.136 0 0 1-2.1-.6644 3.457 3.457 0 0 1-.9715-2.0926" clip-rule="evenodd"/></svg>