<svg xmlns="http://www.w3.org/2000/svg" fill="none" viewBox="0 0 24 24"><path fill="#1763cf" d="M14.36 12.238a.329.329 0 0 0 .098-.234.328.328 0 0 0-.098-.234l-.078-.07-8.895-7.724a.36.36 0 0 0-.226-.086H.857a.359.359 0 0 0-.351.305.375.375 0 0 0 .133.352l8.145 7.161a.391.391 0 0 1 0 .601L.623 19.415a.399.399 0 0 0-.094.437.367.367 0 0 0 .336.211h4.475a.375.375 0 0 0 .234-.086l8.7-7.677zM15.641 10.669a.383.383 0 0 0 .5 0l7.122-6.123a.399.399 0 0 0 .133-.351.359.359 0 0 0-.351-.305h-4.303a.375.375 0 0 0-.234.086l-4.998 4.217a.406.406 0 0 0-.098.465.41.41 0 0 0 .098.136zM16.117 13.347l7.224 6.107a.376.376 0 0 1 .156.352.352.352 0 0 1-.351.305h-4.319a.36.36 0 0 1-.226-.086l-4.967-4.28a.405.405 0 0 1-.133-.301.407.407 0 0 1 .133-.301l1.991-1.796a.367.367 0 0 1 .492 0"/></svg>