<svg xmlns="http://www.w3.org/2000/svg" fill="none" viewBox="0 0 24 24"><path fill="#1763cf" d="M5.5188 2.6721c-.999.5088-.999.5871-.0646 1.6328 5.1808 5.7686 6.4203 7.1325 6.5131 7.1325.1292.0145 7.3078-7.831 7.3869-8.0668.0323-.0646-.1898-.2867-.4764-.4908-.3795-.2867-.7913-.3974-1.5682-.4297-1.4574-.0928-1.9654.222-3.7742 2.2522-.8236.9163-1.5221 1.6795-1.5221 1.6795-.0144 0-.6943-.7446-1.5042-1.6472s-1.7434-1.8081-2.059-1.9834c-.7307-.4118-2.2198-.4441-2.9361-.079zM2.1886 5.0034C1.4118 5.3044 1 5.5904 1 5.809c0 .1107 1.221 1.54 2.6963 3.1727 1.4897 1.6327 2.6928 2.9967 2.6928 3.0255 0 .0324-1.221 1.3963-2.6963 3.0291-1.4897 1.6471-2.6784 3.0902-2.6605 3.2153.079.4296 1.3784.97 2.3271.97 1.54-.0179 1.8871-.2867 5.1382-3.8526 1.6327-1.7902 2.9609-3.3123 2.9609-3.3624 0-.0612-1.3137-1.5503-2.9286-3.3267-2.1092-2.299-3.1404-3.3301-3.6305-3.5522-.7446-.365-1.9477-.4255-2.7108-.1244m16.9291.1106c-.462.2365-1.6183 1.3784-3.6161 3.5667-1.6149 1.7757-2.9328 3.2655-2.9328 3.3266 0 .0647 1.3323 1.5716 2.9651 3.3625 3.2476 3.5666 3.5982 3.8347 5.1347 3.8526.9522 0 2.2522-.5404 2.3313-.97.0144-.143-1.1742-1.5682-2.664-3.2009-1.4719-1.6293-2.6928-3.0112-2.6928-3.0435 0-.0288 1.2209-1.4107 2.6928-3.0434 1.4898-1.6293 2.6784-3.0579 2.664-3.183-.0791-.4118-1.2533-.8882-2.2666-.9522-.7308-.0323-1.1103.0323-1.6149.2867zM8.29 16.5577c-1.9655 2.1731-3.5804 4.0101-3.6127 4.0891-.0323.0647.1897.2867.4764.4909.3795.2867.7913.3973 1.5682.4297 1.443.0928 1.9799-.24 3.8024-2.299.7947-.8882 1.4753-1.6327 1.4897-1.6327.0179 0 .6985.7445 1.5077 1.6472 1.8548 2.0624 2.3449 2.3635 3.7879 2.2845.7769-.0324 1.1887-.143 1.5682-.4297.2866-.2042.5087-.4262.4764-.4909-.0791-.2365-7.2618-8.0847-7.3869-8.0668-.0646 0-1.7118 1.7902-3.6773 3.9777"/></svg>