<svg xmlns="http://www.w3.org/2000/svg" fill="none" viewBox="0 0 24 24"><g clip-path="url(#brand-zoom-a)"><g clip-path="url(#brand-zoom-b)"><path fill="red" fill-opacity=".7" d="M15.0005-.0254A.026.026 0 0 1 15.0259 0v8.9395l8.957-8.957a.025.025 0 0 1 .0352 0 .0254.0254 0 0 1 0 .035L15.061 8.9747h8.9444A.026.026 0 0 1 24.0308 9a.026.026 0 0 1-.0254.0254h-8.9795v2.9443h8.9795a.026.026 0 0 1 .0254.0254.026.026 0 0 1-.0254.0254h-8.9795v2.9541h8.9795a.026.026 0 0 1 .0254.0254.026.026 0 0 1-.0254.0254H15.061l8.9571 8.957a.0255.0255 0 0 1 0 .0352.025.025 0 0 1-.0352 0l-8.957-8.9571V24a.026.026 0 0 1-.0254.0254.0257.0257 0 0 1-.0254-.0254v-8.9746h-2.9492V24a.026.026 0 0 1-.0254.0254.0257.0257 0 0 1-.0254-.0254v-8.9746H9.0259V24a.026.026 0 0 1-.0254.0254A.0257.0257 0 0 1 8.975 24v-8.9395l-8.957 8.9571a.025.025 0 0 1-.0352 0 .025.025 0 0 1 0-.0352l8.957-8.957H.0054A.0257.0257 0 0 1-.02 15a.0257.0257 0 0 1 .0254-.0254H8.975v-2.9541H.0054a.026.026 0 0 1-.0254-.0254.0257.0257 0 0 1 .0254-.0254H8.975V9.0254H.0054A.0257.0257 0 0 1-.02 9a.0257.0257 0 0 1 .0254-.0254h8.9345L-.017.0176a.025.025 0 0 1 0-.0352.025.025 0 0 1 .0352 0l8.957 8.957V0a.0257.0257 0 0 1 .0254-.0254A.026.026 0 0 1 9.0259 0v8.9746h2.9492V0a.0257.0257 0 0 1 .0254-.0254.026.026 0 0 1 .0254.0254v8.9746h2.9492V0a.0257.0257 0 0 1 .0254-.0254m-5.9395 15h2.9141v-2.9141zm2.9649 0h2.914l-2.914-2.9141zm2.9492-.0351v-2.919h-2.9189zm-5.9492 0 2.9189-2.919h-2.919zm0-2.9698h2.9092L9.0259 9.0605zm3.04 0h2.9092V9.0605zm-.0908-.0302V9.0254h-2.914zm.0508 0 2.914-2.9141h-2.914z" opacity=".9"/><rect width="20" height="20" x="2" y="2" stroke="red" stroke-linecap="round" stroke-width=".1" rx="3"/></g><path fill="#1763cf" d="M19 2c1.6569 0 3 1.3432 3 3v14c0 1.6569-1.3431 3-3 3H5c-1.6568 0-3-1.3431-3-3V5c0-1.6568 1.3432-3 3-3zM6.0225 8.2305c-.5646.0001-1.0223.44-1.0225.9824v4.6025c.0648 2.1849 2.2633 1.9479 2.2861 1.9453h6.75c.5648 0 1.0224-.4399 1.0225-.9824V9.9248c-.0652-1.5059-2.0244-1.6943-2.0244-1.6943zM19 8.9727c0-.3154-.3671-.5021-.6387-.3252l-2.2265 1.4521c-.3736.2439-.5967.6501-.5967 1.084v1.6777c0 .2162.0557.4287.1621.6192s.2597.3532.4473.4726l2.2177 1.4121c.2719.1727.6348-.0148.6348-.3281z"/></g><defs><clipPath id="brand-zoom-a"><path fill="#fff" d="M0 0h24v24H0z"/></clipPath><clipPath id="brand-zoom-b"><path fill="#fff" d="M0 0h24v24H0z"/></clipPath></defs></svg>