<svg xmlns="http://www.w3.org/2000/svg" fill="none" viewBox="0 0 24 24"><path fill="#1763cf" d="M15.2579 2c2.3899.0042 2.483.0243 2.9501.0918.9641.139 1.7731.5235 2.4346 1.1553.3707.3567.6265.7057.8565 1.1728.2802.5707.4174 1.1112.4804 1.914.0135.1763.0196 2.916.0196 5.6573 0 2.743-.0051 5.4898-.0186 5.6621-.0623.7901-.2002 1.3347-.4717 1.8946-.5399 1.1136-1.5322 1.9261-2.7304 2.2353-.4344.1122-.8274.1645-1.5039.1963-.2415.0123-2.7674.0156-5.293.0156s-5.0502-.0078-5.2979-.0185c-.584-.0277-1.0391-.0864-1.4511-.1924-1.1906-.3077-2.2014-1.1322-2.7305-2.2305-.2768-.5737-.4073-1.0981-.4766-1.9316-.02-.2369-.0254-1.4568-.0254-5.628 0-1.4054-.0015-2.4538 0-3.25.004-2.388.0242-2.4837.0918-2.9511.1392-.9633.5238-1.774 1.1582-2.4327.3484-.361.702-.6185 1.1495-.8408.5805-.289 1.1134-.4239 1.9697-.495C6.6065 2.0046 7.8282 2 12.003 2zm-3.2608 2.6152c-2.004 0-2.2557.0091-3.043.045-.786.036-1.3225.1602-1.792.3427-.4855.1886-.8972.441-1.3076.8516-.4106.4104-.6633.8222-.8525 1.3076-.183.4696-.3074 1.0064-.3428 1.792-.0352.7873-.0449 1.0393-.0449 3.0439 0 2.0052.0092 2.2565.045 3.044.036.7859.1603 1.3226.3427 1.792.1887.4855.4412.8973.8516 1.3076.4102.4107.8223.664 1.3076.8525.4697.1826 1.0063.3068 1.792.3428.7875.0359 1.0392.0449 3.0439.0449 2.0053 0 2.2564-.009 3.044-.0449.7859-.036 1.3232-.1602 1.7929-.3428.4854-.1885.8965-.4418 1.3067-.8525.4106-.4104.6633-.8222.8525-1.3076.1815-.4696.3059-1.0064.3428-1.792.0353-.7874.0449-1.0389.0449-3.044 0-2.0047-.0095-2.2564-.0449-3.0439-.0369-.786-.1613-1.3226-.3428-1.792-.1892-.4856-.4419-.8972-.8525-1.3076-.4107-.4107-.8216-.6631-1.3076-.8516-.4706-.1825-1.0072-.3068-1.793-.3427-.7874-.0359-1.0383-.045-3.043-.045m-.6611 1.3301c.1965-.0003.4158 0 .6621 0 1.9711 0 2.2051.0076 2.9834.043.7198.0329 1.1108.1528 1.3711.2539.3445.1338.5904.2943.8486.5527s.4177.5044.5518.8487c.101.26.2221.6512.2549 1.371.0353.778.0429 1.0124.0429 2.9825s-.0076 2.2041-.0429 2.9824c-.033.7197-.1539 1.1102-.2549 1.3701-.1338.3446-.2934.5904-.5518.8486-.2584.2584-.504.418-.8486.5518-.26.1015-.6513.222-1.3711.2549-.7782.0354-1.0123.043-2.9834.043-1.9713 0-2.2051-.0076-2.9834-.043-.7197-.0333-1.1107-.1538-1.3711-.2549-.3443-.1338-.5904-.2936-.8486-.5518-.2584-.2583-.4187-.504-.5528-.8486-.101-.2599-.2211-.6512-.2539-1.3711-.0353-.7782-.043-1.0121-.043-2.9834s.0077-2.2044.043-2.9824c.033-.7197.1529-1.1108.254-1.3711.1338-.3446.2943-.5912.5527-.8496.2582-.2582.5044-.4177.8486-.5518.2602-.1015.6514-.2218 1.371-.2548.6812-.0308.9453-.0405 2.3214-.042zm.6621 2.2617c-2.0937.0001-3.7908 1.6973-3.791 3.791 0 2.0939 1.6972 3.791 3.791 3.7911 2.0939 0 3.791-1.6971 3.791-3.7911-.0002-2.0937-1.6973-3.791-3.791-3.791m0 1.3301c1.359 0 2.4607 1.1018 2.4609 2.4609 0 1.3592-1.1018 2.462-2.4609 2.462-1.3592-.0001-2.461-1.1029-2.461-2.462.0003-1.359 1.1019-2.4608 2.461-2.4609m3.9414-2.3662c-.4891 0-.8857.3974-.8857.8867.0001.489.3967.8858.8857.8858.4889-.0001.8855-.3969.8857-.8858 0-.489-.3966-.8866-.8857-.8867"/></svg>