<svg xmlns="http://www.w3.org/2000/svg" fill="none" viewBox="0 0 24 24"><g clip-path="url(#brand-citrix-a)"><g clip-path="url(#brand-citrix-b)"><path fill="red" fill-opacity=".7" d="M15.0005-.0254A.026.026 0 0 1 15.0259 0v8.9395l8.957-8.957a.025.025 0 0 1 .0352 0 .0254.0254 0 0 1 0 .035L15.061 8.9747h8.9444A.026.026 0 0 1 24.0308 9a.026.026 0 0 1-.0254.0254h-8.9795v2.9443h8.9795a.026.026 0 0 1 .0254.0254.026.026 0 0 1-.0254.0254h-8.9795v2.9541h8.9795a.026.026 0 0 1 .0254.0254.026.026 0 0 1-.0254.0254H15.061l8.9571 8.957a.0255.0255 0 0 1 0 .0352.025.025 0 0 1-.0352 0l-8.957-8.9571V24a.026.026 0 0 1-.0254.0254.0257.0257 0 0 1-.0254-.0254v-8.9746h-2.9492V24a.026.026 0 0 1-.0254.0254.0257.0257 0 0 1-.0254-.0254v-8.9746H9.0259V24a.026.026 0 0 1-.0254.0254A.0257.0257 0 0 1 8.975 24v-8.9395l-8.957 8.9571a.025.025 0 0 1-.0352 0 .025.025 0 0 1 0-.0352l8.957-8.957H.0054A.0257.0257 0 0 1-.02 15a.0257.0257 0 0 1 .0254-.0254H8.975v-2.9541H.0054a.026.026 0 0 1-.0254-.0254.0257.0257 0 0 1 .0254-.0254H8.975V9.0254H.0054A.0257.0257 0 0 1-.02 9a.0257.0257 0 0 1 .0254-.0254h8.9345L-.017.0176a.025.025 0 0 1 0-.0352.025.025 0 0 1 .0352 0l8.957 8.957V0a.0257.0257 0 0 1 .0254-.0254A.026.026 0 0 1 9.0259 0v8.9746h2.9492V0a.0257.0257 0 0 1 .0254-.0254.026.026 0 0 1 .0254.0254v8.9746h2.9492V0a.0257.0257 0 0 1 .0254-.0254m-5.9395 15h2.9141v-2.9141zm2.9649 0h2.914l-2.914-2.9141zm2.9492-.0351v-2.919h-2.9189zm-5.9492 0 2.9189-2.919h-2.919zm0-2.9698h2.9092L9.0259 9.0605zm3.04 0h2.9092V9.0605zm-.0908-.0302V9.0254h-2.914zm.0508 0 2.914-2.9141h-2.914z" opacity=".9"/><circle cx="12" cy="12" r="11" stroke="red" stroke-linecap="round" stroke-width=".1"/></g><path fill="#1763cf" d="M12 1c6.0751 0 11 4.9249 11 11s-4.9249 11-11 11S1 18.0751 1 12 5.9249 1 12 1m0 2.3272C7.21 3.3272 3.3272 7.21 3.3272 12S7.21 20.6729 12 20.6729 20.6729 16.79 20.6729 12c0-.5842-.4735-1.0576-1.0577-1.0576-.5841.0001-1.0576.4735-1.0576 1.0576 0 3.6217-2.9359 6.5576-6.5576 6.5576S5.4424 15.6217 5.4424 12 8.3783 5.4424 12 5.4424c.5841 0 1.0575-.4735 1.0576-1.0576S12.5842 3.327 12 3.327m0 3.8076C9.313 7.1348 7.1348 9.313 7.1348 12S9.313 16.8652 12 16.8652 16.8652 14.687 16.8652 12c0-.5842-.4734-1.0576-1.0576-1.0576-.5841 0-1.0576.4734-1.0576 1.0576 0 1.5188-1.2312 2.75-2.75 2.75S9.25 13.5188 9.25 12 10.4812 9.25 12 9.25c.5842 0 1.0576-.4735 1.0576-1.0576S12.5842 7.1348 12 7.1348m0 3.5957c-.701 0-1.2695.5685-1.2695 1.2695S11.299 13.2695 12 13.2695 13.2695 12.701 13.2695 12 12.701 10.7305 12 10.7305"/></g><defs><clipPath id="brand-citrix-a"><path fill="#fff" d="M0 0h24v24H0z"/></clipPath><clipPath id="brand-citrix-b"><path fill="#fff" d="M0 0h24v24H0z"/></clipPath></defs></svg>