<svg xmlns="http://www.w3.org/2000/svg" fill="none" viewBox="0 0 24 24"><g clip-path="url(#compliance-pci-a)"><g clip-path="url(#compliance-pci-b)"><path fill="red" fill-opacity=".7" d="M15.0005-.0254A.026.026 0 0 1 15.0259 0v8.9395l8.957-8.957a.025.025 0 0 1 .0352 0 .0254.0254 0 0 1 0 .035L15.061 8.9747h8.9444A.026.026 0 0 1 24.0308 9a.026.026 0 0 1-.0254.0254h-8.9795v2.9443h8.9795a.026.026 0 0 1 .0254.0254.026.026 0 0 1-.0254.0254h-8.9795v2.9541h8.9795a.026.026 0 0 1 .0254.0254.026.026 0 0 1-.0254.0254H15.061l8.9571 8.957a.0255.0255 0 0 1 0 .0352.025.025 0 0 1-.0352 0l-8.957-8.9571V24a.026.026 0 0 1-.0254.0254.0257.0257 0 0 1-.0254-.0254v-8.9746h-2.9492V24a.026.026 0 0 1-.0254.0254.0257.0257 0 0 1-.0254-.0254v-8.9746H9.0259V24a.026.026 0 0 1-.0254.0254A.0257.0257 0 0 1 8.975 24v-8.9395l-8.957 8.9571a.025.025 0 0 1-.0352 0 .025.025 0 0 1 0-.0352l8.957-8.957H.0054A.0257.0257 0 0 1-.02 15a.0257.0257 0 0 1 .0254-.0254H8.975v-2.9541H.0054a.026.026 0 0 1-.0254-.0254.0257.0257 0 0 1 .0254-.0254H8.975V9.0254H.0054A.0257.0257 0 0 1-.02 9a.0257.0257 0 0 1 .0254-.0254h8.9345L-.017.0176a.025.025 0 0 1 0-.0352.025.025 0 0 1 .0352 0l8.957 8.957V0a.0257.0257 0 0 1 .0254-.0254A.026.026 0 0 1 9.0259 0v8.9746h2.9492V0a.0257.0257 0 0 1 .0254-.0254.026.026 0 0 1 .0254.0254v8.9746h2.9492V0a.0257.0257 0 0 1 .0254-.0254m-5.9395 15h2.9141v-2.9141zm2.9649 0h2.914l-2.914-2.9141zm2.9492-.0351v-2.919h-2.9189zm-5.9492 0 2.9189-2.919h-2.919zm0-2.9698h2.9092L9.0259 9.0605zm3.04 0h2.9092V9.0605zm-.0908-.0302V9.0254h-2.914zm.0508 0 2.914-2.9141h-2.914z" opacity=".9"/><rect width="20" height="20" x="2" y="2" stroke="red" stroke-linecap="round" stroke-width=".1" rx="3"/></g><path fill="#1763cf" d="M6.644 10.381c.7762 0 1.1755.2668 1.1755.7992-.0001.2882-.1112.5096-.3107.6205-.1997.1331-.5102.1993-.8872.1993h-.2658v-1.619z"/><path fill="#1763cf" fill-rule="evenodd" d="m23.5 13.9962-3.7042 1.1624V9.0951h-2.3284v6.0766h2.2872L5.6903 19.5852.5 5.4574l18.6969-1.0427zm-9.049-4.99c-.5766 0-1.1095.0664-1.5975.2218-.4875.1552-.9087.377-1.2634.643a3.19 3.19 0 0 0-.8208.9985c-.1994.399-.2882.8202-.2883 1.2859s.0885.8876.2659 1.2868c.1774.377.4434.7099.7983.9761.3548.266.7766.4652 1.2868.6205.4881.1552 1.0648.2218 1.708.2218.4655 0 .8648-.0439 1.2194-.1104.3548-.0666.3996-.0892.7543-.1778v-1.5302c-.2884.133-.5772.1992-.8432.2658-.2661.0665-.5545.0889-.8208.0889-.2658 0-.5102-.0446-.7543-.1113-.2434-.0665-.4431-.177-.6204-.3098-.1775-.133-.3103-.3106-.4212-.5101-.1108-.2218-.1554-.4664-.1554-.7327.0001-.554.1552-.9528.4876-1.241.3328-.2664.7547-.4221 1.2869-.4221.3102.0001.6206.0441.9087.1329.2882.0663.5551.1778.7768.3107v-1.619c-.2884-.111-.2885-.1107-.6655-.1994-.3769-.0667-.7983-.0889-1.2419-.0889m-10.3797 6.143h2.306v-1.8183h.3547c.51 0 .954-.0444 1.3532-.1329.3994-.0889.7542-.2223 1.0427-.3997.2881-.1773.5101-.4209.6654-.6869.1551-.2882.2441-.5989.2441-.9536 0-.6875-.2888-1.22-.8656-1.5526s-1.3749-.511-2.395-.511H4.0714zM18.6428 5.857c-.3992 0-.7324.1107-.9986.3546-.266.244-.3987.5549-.3987.9762.0001.399.1327.7318.3987.9536.2662.244.5994.3548.9986.3548.399 0 .7317-.1332.9977-.3548.266-.2218.3995-.5546.3995-.9535 0-.4217-.1334-.7544-.3995-.9762-.2661-.2439-.5986-.3547-.9977-.3547" clip-rule="evenodd"/></g><defs><clipPath id="compliance-pci-a"><path fill="#fff" d="M0 0h24v24H0z"/></clipPath><clipPath id="compliance-pci-b"><path fill="#fff" d="M0 0h24v24H0z"/></clipPath></defs></svg>