<svg xmlns="http://www.w3.org/2000/svg" fill="none" viewBox="0 0 24 24"><g clip-path="url(#sparkles-a)"><path fill="red" fill-opacity=".7" d="M15.0005-.0254A.026.026 0 0 1 15.0259 0v8.9395l8.957-8.957a.025.025 0 0 1 .0352 0 .0254.0254 0 0 1 0 .035L15.061 8.9747h8.9444A.026.026 0 0 1 24.0308 9a.026.026 0 0 1-.0254.0254h-8.9795v2.9443h8.9795a.026.026 0 0 1 .0254.0254.026.026 0 0 1-.0254.0254h-8.9795v2.9541h8.9795a.026.026 0 0 1 .0254.0254.026.026 0 0 1-.0254.0254H15.061l8.9571 8.957a.0255.0255 0 0 1 0 .0352.025.025 0 0 1-.0352 0l-8.957-8.9571V24a.026.026 0 0 1-.0254.0254.0257.0257 0 0 1-.0254-.0254v-8.9746h-2.9492V24a.026.026 0 0 1-.0254.0254.0257.0257 0 0 1-.0254-.0254v-8.9746H9.0259V24a.026.026 0 0 1-.0254.0254A.0257.0257 0 0 1 8.975 24v-8.9395l-8.957 8.9571a.025.025 0 0 1-.0352 0 .025.025 0 0 1 0-.0352l8.957-8.957H.0054A.0257.0257 0 0 1-.02 15a.0257.0257 0 0 1 .0254-.0254H8.975v-2.9541H.0054a.026.026 0 0 1-.0254-.0254.0257.0257 0 0 1 .0254-.0254H8.975V9.0254H.0054A.0257.0257 0 0 1-.02 9a.0257.0257 0 0 1 .0254-.0254h8.9345L-.017.0176a.025.025 0 0 1 0-.0352.025.025 0 0 1 .0352 0l8.957 8.957V0a.0257.0257 0 0 1 .0254-.0254A.026.026 0 0 1 9.0259 0v8.9746h2.9492V0a.0257.0257 0 0 1 .0254-.0254.026.026 0 0 1 .0254.0254v8.9746h2.9492V0a.0257.0257 0 0 1 .0254-.0254m-5.9395 15h2.9141v-2.9141zm2.9649 0h2.914l-2.914-2.9141zm2.9492-.0351v-2.919h-2.9189zm-5.9492 0 2.9189-2.919h-2.919zm0-2.9698h2.9092L9.0259 9.0605zm3.04 0h2.9092V9.0605zm-.0908-.0302V9.0254h-2.914zm.0508 0 2.914-2.9141h-2.914z" opacity=".9"/><rect width="20" height="20" x="2" y="2" stroke="red" stroke-linecap="round" stroke-width=".1" rx="3"/></g><path fill="#1763cf" d="M15.109 1.01a.598.598 0 0 1 .483.473l.072.325c.8 3.328 3.479 5.926 6.851 6.608l.103.029A.599.599 0 0 1 23 9.004a.599.599 0 0 1-.485.589l-.001-.001c-3.481.701-6.226 3.443-6.929 6.922l.001.001A.599.599 0 0 1 14.997 17a.598.598 0 0 1-.588-.485c-.701-3.481-3.442-6.226-6.922-6.93a.597.597 0 0 1-.476-.483L7 8.997l.01-.105a.598.598 0 0 1 .374-.454l.103-.029c3.483-.701 6.229-3.444 6.93-6.926A.599.599 0 0 1 15.004 1zM6.002 13a.408.408 0 0 1 .378.257l.02.067v.002c.431 2.147 2.12 3.84 4.264 4.275.003.001.007 0 .009.001.186.039.326.203.326.398 0 .195-.14.359-.325.398-2.15.433-3.846 2.126-4.278 4.275-.038.186-.203.326-.398.327-.195 0-.359-.14-.397-.325l-.001-.001c-.431-2.15-2.124-3.845-4.273-4.278-.186-.038-.326-.203-.326-.398 0-.195.14-.359.326-.397l.002-.001c2.15-.432 3.844-2.125 4.277-4.273l.001-.001A.407.407 0 0 1 6.002 13"/><defs><clipPath id="sparkles-a"><path fill="#fff" d="M0 0h24v24H0z"/></clipPath></defs></svg>