<svg xmlns="http://www.w3.org/2000/svg" fill="none" viewBox="0 0 24 24"><path fill="#1763cf" d="M20.0652 15.1275c.4952.2445 1.0949.0413 1.3395-.4539s.0413-1.0949-.4539-1.3394l-.4428.8966zM3.492 14.2308l.4428.8967zM8.1874 1.9682c-.4847.2648-.663.8723-.3984 1.357s.8722.663 1.357.3984l-.4793-.8777zM2.707 1.293c-.3905-.3905-1.0237-.3905-1.4142 0s-.3905 1.0237 0 1.4142L2 2zM21.293 22.707c.3905.3905 1.0237.3905 1.4142 0s.3905-1.0237 0-1.4142L22 22zm-10.3513-2.3183c-.2762-.4782-.8878-.6421-1.366-.3659-.4784.2762-.6422.8878-.366 1.366l.866-.5zm3.8489 1.0001c.2761-.4782.1123-1.0898-.366-1.366s-1.0899-.1123-1.366.3659l.866.5001zM12 2v1c3.2766 0 5.8889 2.6164 5.8889 5.7901h2C19.8889 4.4896 16.3588 1 12 1zm6.8889 6.7901h-1v2.8464h2V8.7901zm0 2.8464h-1c0 1.4906.8526 2.8372 2.1763 3.491l.4428-.8967.4428-.8966c-.6505-.3212-1.0619-.9784-1.0619-1.6977zM4 17.5556v-1c.041 0 .1111.0406.1111.1358h-2c0 1.0238.8399 1.8642 1.8889 1.8642zm-.8889-.8642h1v-1.8588h-2v1.8588zm0-1.8588h1c0 .1359-.0771.2459-.1763.2949l-.4428-.8967-.4428-.8966c-.5764.2846-.938.8656-.938 1.4984zm.3809-.6018.4428.8967c1.3237-.6538 2.1763-2.0004 2.1763-3.491h-2c0 .7193-.4114 1.3765-1.0619 1.6977zm1.6191-2.5943h1V8.7901h-2v2.8464zm0-2.8464h1c0-.883.201-1.7193.5607-2.4683l-.9015-.433-.9014-.4328a7.68 7.68 0 0 0-.7578 3.3341zm12.4445 8.7655v-1H4v2h13.5556zM8.6666 2.8459l.4793.8777C9.9887 3.2634 10.9601 3 12 3V1c-1.382 0-2.6822.351-3.8126.9683zM2 2l-.7071.7071 20 20L22 22l.7071-.7071-20-20zm8.0756 18.8889-.866.5a3.22 3.22 0 0 0 1.1794 1.1793l.4999-.866.5-.866a1.22 1.22 0 0 1-.4473-.4474zm.8133.8133-.4999.866a3.22 3.22 0 0 0 1.611.4317v-2a1.223 1.223 0 0 1-.6111-.1637zM12 21.9999v1a3.22 3.22 0 0 0 1.611-.4317l-.4999-.866-.5-.866a1.223 1.223 0 0 1-.6111.1637zm1.1111-.2977.4999.866a3.22 3.22 0 0 0 1.1795-1.1793l-.866-.5-.866-.5001a1.22 1.22 0 0 1-.4474.4474z"/></svg>