<svg xmlns="http://www.w3.org/2000/svg" fill="none" viewBox="0 0 24 24"><path fill="#1763cf" d="M21.7071 4.7071c.3905-.3905.3905-1.0237 0-1.4142s-1.0237-.3905-1.4142 0L21 4zm-18-1.4142c-.3905-.3905-1.0237-.3905-1.4142 0s-.3905 1.0237 0 1.4142L3 4zM18 11.5c-.5523 0-1 .4477-1 1s.4477 1 1 1v-2m3.5 2c.5523 0 1-.4477 1-1s-.4477-1-1-1v2m-3.192 3.3998c-.3908-.3902-1.024-.3897-1.4142.0012s-.3896 1.024.0013 1.4142l.7064-.7077zm1.9855 4.8079c.3909.3902 1.024.3897 1.4142-.0012s.3897-1.024-.0012-1.4142L21 21zM7.1049 18.3152c.391-.3902.3915-1.0233.0013-1.4142s-1.0234-.3914-1.4142-.0012l.7065.7077zm-4.8114 1.9771c-.3908.3902-.3914 1.0233-.0012 1.4142s1.0233.3914 1.4142.0012L3 21zM2 11.5c-.5523 0-1 .4477-1 1s.4477 1 1 1v-2m4 2c.5523 0 1-.4477 1-1s-.4477-1-1-1v2M18 7h-1v9h2V7zM6 16h1V7H5v9zm12 0h-1c0 1.0285-.6943 2.0154-1.8235 2.8058C14.0489 19.5951 12.7453 20 12 20v2c1.2547 0 2.9511-.5951 4.3235-1.5558C17.6943 19.4846 19 17.9715 19 16zm-6 5v-1c-.7453 0-2.049-.4049-3.1765-1.1942C7.6943 18.0154 7 17.0285 7 16H5c0 1.9715 1.3057 3.4846 2.6765 4.4442C9.049 21.4049 10.7453 22 12 22zm0-14h-1v14h2V7zM9 6h1c0-1.1046.8954-2 2-2V2C9.7909 2 8 3.7909 8 6zm3-3v1c1.1046 0 2 .8954 2 2h2c0-2.2091-1.7909-4-4-4zm6 4 .7071.7071 3-3L21 4l-.7071-.7071-3 3zM6 7l.7071-.7071-3-3L3 4l-.7071.7071 3 3zm12 5.5v1h3.5v-2H18zm-.3985 5.1075-.7064.7077 3.3984 3.3925L21 21l.7065-.7077-3.3985-3.3925zm-11.203 0-.7065-.7077-3.3985 3.3925L3 21l.7065.7077 3.3984-3.3925zM2 12.5v1h4v-2H2zM6 7v1h3V6H6zm3-1H8v1h2V6zm0 1v1h6V6H9zm6 0v1h3V6h-3zm0-1h-1v1h2V6z"/></svg>