<svg xmlns="http://www.w3.org/2000/svg" fill="none" viewBox="0 0 24 24"><path fill="#1763cf" d="M11.6415 8.214c.3636-.4156.3215-1.0474-.0941-1.411-.4156-.3637-1.0474-.3216-1.4111.094l.7526.6585zM7 12l-.7526-.6585a1 1 0 0 0 0 1.317zm3.1363 5.1029c.3637.4157.9955.4578 1.4111.0941s.4577-.9955.0941-1.4111l-.7526.6585zM17 13c.5523 0 1-.4477 1-1s-.4477-1-1-1v2m5-1h-1c0 4.9706-4.0294 9-9 9v2c6.0751 0 11-4.9249 11-11zM12 22v-1c-4.9706 0-9-4.0294-9-9H1c0 6.0751 4.9249 11 11 11zM2 12h1c0-4.9706 4.0294-9 9-9V1C5.9249 1 1 5.9249 1 12zM12 2v1c4.9706 0 9 4.0294 9 9h2c0-6.0751-4.9249-11-11-11zm-1.1111 5.5555-.7526-.6585-3.8889 4.4445L7 12l.7526.6585 3.8889-4.4445zM7 12l-.7526.6585 3.8889 4.4444.7526-.6585.7526-.6585-3.889-4.4444zm0 0v1h10v-2H7z"/></svg>