<svg xmlns="http://www.w3.org/2000/svg" fill="none" viewBox="0 0 24 24"><path fill="#1763cf" d="M8.214 11.8029c-.4156-.3636-1.0473-.3215-1.411.0941s-.3216 1.0474.094 1.4111l.6586-.7526zM12 16.4444l-.6585.7526a1 1 0 0 0 1.317 0zm5.103-3.1363c.4156-.3637.4577-.9954.094-1.4111-.3637-.4156-.9954-.4577-1.4111-.0941l.6585.7526zM13 6.4444c0-.5523-.4477-1-1-1s-1 .4477-1 1h2M22 12h-1c0 4.9706-4.0294 9-9 9v2c6.0751 0 11-4.9249 11-11zM12 22v-1c-4.9706 0-9-4.0294-9-9H1c0 6.0751 4.9249 11 11 11zM2 12h1c0-4.9706 4.0294-9 9-9V1C5.9249 1 1 5.9249 1 12zM12 2v1c4.9706 0 9 4.0294 9 9h2c0-6.0751-4.9249-11-11-11zM7.5556 12.5555l-.6585.7526 4.4444 3.8889.6585-.7526.6585-.7526-4.4444-3.8889zM12 16.4444l.6585.7526 4.4445-3.8889-.6586-.7526-.6585-.7526-4.4444 3.8889zm0 0h1v-10h-2v10z"/></svg>