<svg xmlns="http://www.w3.org/2000/svg" fill="none" viewBox="0 0 24 24"><path fill="#1763cf" d="M13.8637 6.897c-.3637-.4156-.9955-.4577-1.4111-.094-.4156.3636-.4577.9954-.0941 1.411l.7526-.6585zM17 12l.7526.6585a1 1 0 0 0 0-1.317zm-4.6415 3.7859c-.3636.4156-.3215 1.0474.0941 1.4111s1.0474.3216 1.4111-.0941l-.7526-.6585zM7 11c-.5523 0-1 .4477-1 1s.4477 1 1 1v-2m15 1h-1c0 4.9706-4.0294 9-9 9v2c6.0751 0 11-4.9249 11-11zM12 22v-1c-4.9706 0-9-4.0294-9-9H1c0 6.0751 4.9249 11 11 11zM2 12h1c0-4.9706 4.0294-9 9-9V1C5.9249 1 1 5.9249 1 12zM12 2v1c4.9706 0 9 4.0294 9 9h2c0-6.0751-4.9249-11-11-11zm1.1111 5.5555-.7526.6585 3.8889 4.4445L17 12l.7526-.6585-3.8889-4.4445zM17 12l-.7526-.6585-3.8889 4.4444.7526.6585.7526.6585 3.8889-4.4444zm0 0v-1H7v2h10z"/></svg>