<svg xmlns="http://www.w3.org/2000/svg" fill="none" viewBox="0 0 24 24"><path fill="#1763cf" d="M6.897 9.5807c-.4156.3637-.4577.9955-.094 1.4111s.9954.4578 1.411.0941l-.6584-.7526zM12 6.4444l.6585-.7526a1 1 0 0 0-1.317 0zm3.7859 4.6415c.4157.3637 1.0474.3215 1.4111-.0941s.3216-1.0474-.094-1.411l-.6586.7525zM11 16.4444c0 .5523.4477 1 1 1s1-.4477 1-1h-2M22 12h-1c0 4.9706-4.0294 9-9 9v2c6.0751 0 11-4.9249 11-11zM12 22v-1c-4.9706 0-9-4.0294-9-9H1c0 6.0751 4.9249 11 11 11zM2 12h1c0-4.9706 4.0294-9 9-9V1C5.9249 1 1 5.9249 1 12zM12 2v1c4.9706 0 9 4.0294 9 9h2c0-6.0751-4.9249-11-11-11zm-4.4444 8.3333.6585.7526 4.4444-3.889L12 6.4445l-.6585-.7526-4.4444 3.889zM12 6.4444l-.6585.7526 4.4444 3.8889.6585-.7526.6586-.7526-4.4445-3.8889zm0 0h-1v10h2v-10z"/></svg>