<svg xmlns="http://www.w3.org/2000/svg" fill="none" viewBox="0 0 24 24"><path fill="#1763cf" d="M9 12c0-.5523-.4477-1-1-1s-1 .4477-1 1h2m-2 1c0 .5523.4477 1 1 1s1-.4477 1-1H7m14.9867-1.5196.9987-.0512zM4.6295 5.2414l-.7369-.676zM12 22v1c6.0751 0 11-4.9249 11-11h-2c0 4.9706-4.0294 9-9 9zM2 12H1c0 6.0751 4.9247 11 11 11v-2c-4.9707 0-9-4.0294-9-9zm16.5-.2196h-1c0 1.2936-.9608 2.2196-2 2.2196v2c2.2745 0 4-1.9569 4-4.2196zM15.5 15v-1c-1.0392 0-2-.926-2-2.2196h-2c0 2.2627 1.7255 4.2196 4 4.2196zM8 12H7v1h2v-1zm14 0h1q0-.287-.0146-.5708l-.9987.0512-.9987.0511Q21 11.7642 21 12zm-.0133-.5196.9987-.0512C22.688 5.6188 17.8837 1 12 1v2c4.8134 0 8.7448 3.779 8.988 8.5315zM12 2V1C8.7911 1 5.902 2.3752 3.8926 4.5654l.7369.676.7368.6761C7.013 4.1228 9.3745 3 12 3zM4.6295 5.2415l-.7369-.676C2.0972 6.5224 1 9.1341 1 12h2c0-2.3458.896-4.48 2.3663-6.0825zm8.5752 4.4648.3364-.9418c-2.9477-1.053-5.755-2.54-8.3394-4.3431l-.5722.82-.5722.8202C6.7744 7.9573 9.739 9.53 12.8683 10.648zm8.782 1.7741.0474-.9989a27.95 27.95 0 0 1-3.4475-.3808l-.1706.9854-.1706.9853a29.9 29.9 0 0 0 3.694.4078zm-3.5707-.3943.1706-.9854c-1.7155-.297-3.4019-.749-5.0455-1.3362l-.3364.9418-.3364.9417c1.7453.6235 3.5426 1.1058 5.3771 1.4234zm0 0-.9655.2603c.0329.1222.0495.2614.0495.434h2c0-.3001-.0287-.6215-.1185-.9546zm-5.916.6943h1c0-.5203.1778-1.004.5251-1.5024l-.8204-.5717-.8205-.5717c-.5198.7459-.8842 1.621-.8842 2.6458z"/></svg>