<svg xmlns="http://www.w3.org/2000/svg" fill="none" viewBox="0 0 24 24"><path fill="#1763cf" d="M21.2417 13.6519c.36.4188.9913.4665 1.4102.1064.4188-.36.4665-.9913.1064-1.4102L22 13zm-19.987-1.4447c-.3682.4116-.333 1.0438.0786 1.412s1.0438.333 1.412-.0786L2 12.8739zM16 13h-1c0 1.6569-1.3431 3-3 3v2c2.7614 0 5-2.2386 5-5zm-4 4v-1c-1.6569 0-3-1.3431-3-3H7c0 2.7614 2.2386 5 5 5zm-4-4h1c0-1.6569 1.3431-3 3-3V8c-2.7614 0-5 2.2386-5 5zm4-4v1c1.6569 0 3 1.3431 3 3h2c0-2.7614-2.2386-5-5-5zm10 4 .7583-.6519C20.4944 9.7144 16.5089 7 11.9908 7v2c3.747 0 7.224 2.294 9.2509 4.6519zM11.9908 8V7c-4.4552 0-8.462 2.6648-10.7361 5.2072L2 12.8739l.7453.6667C4.7862 11.259 8.2923 9 11.9908 9z"/></svg>