<svg xmlns="http://www.w3.org/2000/svg" fill="none" viewBox="0 0 24 24"><path stroke="#1763cf" stroke-linecap="round" stroke-linejoin="round" stroke-width="2" d="M6 7v6"/><path stroke="#1763cf" stroke-linecap="round" stroke-width="2" d="M16 7V6c0-2.2091-1.7909-4-4-4H6C3.7909 2 2 3.7909 2 6v14c0 1.1046.8954 2 2 2h10.5m4-12H18"/><path fill="#1763cf" d="M11.5 7v1h9V6h-9zM22 8.5h-1v12h2v-12zM20.5 22v-1h-9v2h9zM10 20.5h1v-12H9v12zm1.5 1.5v-1a.5.5 0 0 1-.5-.5H9c0 1.3807 1.1193 2.5 2.5 2.5zM22 20.5h-1a.5.5 0 0 1-.5.5v2c1.3807 0 2.5-1.1193 2.5-2.5zM20.5 7v1a.5.5 0 0 1 .5.5h2C23 7.1193 21.8807 6 20.5 6zm-9 0V6C10.1193 6 9 7.1193 9 8.5h2a.5.5 0 0 1 .5-.5z"/><circle cx="16" cy="16" r="2.5" stroke="#1763cf" stroke-width="2"/></svg>