<svg xmlns="http://www.w3.org/2000/svg" fill="none" viewBox="0 0 24 24"><path fill="#1763cf" d="M2 20c-.5523 0-1 .4477-1 1s.4477 1 1 1v-2m20 2c.5523 0 1-.4477 1-1s-.4477-1-1-1v2M14.3416 3.2995l-.6533.7572.0078.0065zm5.4444 4.6014.6533-.7572-.0078-.0065zm-15.5718 0-.6455-.7638-.0078.0067zm5.4462-4.603.6455.7639.0077-.0067zM18 7.2367c0 .5523.4477 1 1 1s1-.4477 1-1h-2M20 3.5c0-.5523-.4477-1-1-1s-1 .4477-1 1h2M12 2v1zM2 21v1h1v-2H2zm1 0v1h7v-2H3zm7 0v1h4v-2h-4zm4 0v1h7v-2h-7zm7 0v1h1v-2h-1zm0-10.4605h-1V21h2V10.5395zM3 21h1V10.5395H2V21zM14.3416 3.2995l-.6455.7637 5.4444 4.6015.6455-.7638.6455-.7637-5.4444-4.6015zM4.2142 7.9009l.6455.7638 5.4462-4.603-.6455-.7637-.6455-.7638-5.4462 4.603zM19 7.2366h1V3.5h-2v3.7366zM4.2142 7.901l-.6532-.7571c-.5048.4355-.9206.8994-1.1945 1.4862C2.0919 9.2185 2 9.8443 2 10.5395h2c0-.5203.0693-.829.1788-1.0636.1103-.2363.3015-.4838.6886-.8178zm5.4462-4.603.6532.7572c.3909-.3372.6562-.5902.9646-.7942C11.558 3.076 11.7801 3 12 3V1c-.7429 0-1.3474.2769-1.825.5927-.4491.297-.8721.693-1.1678.9481zm4.6812.0016.6532-.7572c-.2958-.2552-.7192-.6515-1.1685-.9488C13.3484 1.2773 12.7435 1 12 1v2c.2201 0 .4425.0761.7228.2615.3088.2043.5744.4577.9655.7951zM21 10.5395h1c0-.6707-.0831-1.289-.3523-1.8789-.2692-.5898-.6851-1.0653-1.2084-1.5168l-.6533.7571-.6532.7572c.3964.342.5875.5965.6954.8328S20 10.0315 20 10.5395z"/><path stroke="#1763cf" stroke-linecap="round" stroke-linejoin="round" stroke-width="2" d="M6.2858 11.7857C7.4286 10.6429 9.7143 9.5 12 9.5s4.5714 1.1429 5.7142 2.2857M8.4 14.5034c.9614-.8576 2.2539-1.338 3.6001-1.338s2.6386.4804 3.6 1.338M10.2858 17.5c.4816-.5714 1.1428-.8571 1.7143-.8571s1.2557.2857 1.7142.8571"/></svg>