<svg xmlns="http://www.w3.org/2000/svg" fill="none" viewBox="0 0 24 24"><path stroke="#1763cf" stroke-linecap="round" stroke-linejoin="round" stroke-width="2" d="M8 9V5.8889c0-1.0314.4214-2.0206 1.1716-2.7499S10.939 2 12 2s2.0783.4097 2.8284 1.139c.2669.2595.4921.5518.6716.8672"/><path fill="#1763cf" d="M6 9v1h12V8H6zm14 2h-1v8h2v-8zm-2 10v-1H6v2h12zM4 19h1v-8H3v8zm2 2v-1c-.5523 0-1-.4477-1-1H3c0 1.6569 1.3431 3 3 3zm14-2h-1c0 .5523-.4477 1-1 1v2c1.6569 0 3-1.3431 3-3zM18 9v1c.5523 0 1 .4477 1 1h2c0-1.6569-1.3431-3-3-3zM6 9V8c-1.6569 0-3 1.3431-3 3h2c0-.5523.4477-1 1-1z"/></svg>