<svg xmlns="http://www.w3.org/2000/svg" fill="none" viewBox="0 0 24 24"><path stroke="#1763cf" stroke-linecap="round" stroke-linejoin="round" stroke-width="2" d="M9 22h3m3 0h-3m0 0v-4M5 13c1.09 3.178 3.641 5 7 5s5.911-1.822 7-5"/><path fill="#1763cf" d="M15 5h-1v6h2V5zm-6 6h1V5H8v6zm3 3v-1c-1.1046 0-2-.8954-2-2H8c0 2.2091 1.7909 4 4 4zm3-3h-1c0 1.1046-.8954 2-2 2v2c2.2091 0 4-1.7909 4-4zm-3-9v1c1.1046 0 2 .8954 2 2h2c0-2.2091-1.7909-4-4-4zm0 0V1C9.7909 1 8 2.7909 8 5h2c0-1.1046.8954-2 2-2z"/></svg>