<svg xmlns="http://www.w3.org/2000/svg" fill="none" viewBox="0 0 24 24"><path stroke="#1763cf" stroke-linecap="round" stroke-linejoin="round" stroke-width="2" d="M5 21h14M12 22.5V17"/><path fill="#1763cf" d="M5 3v1h14V2H5zm16 2h-1v10h2V5zm-2 12v-1H5v2h14zM3 15h1V5H2v10zm2 2v-1c-.5523 0-1-.4477-1-1H2c0 1.6569 1.3432 3 3 3zm16-2h-1c0 .5523-.4477 1-1 1v2c1.6569 0 3-1.3431 3-3zM19 3v1c.5523 0 1 .4477 1 1h2c0-1.6568-1.3431-3-3-3zM5 3V2C3.3432 2 2 3.3432 2 5h2c0-.5523.4477-1 1-1z"/><path stroke="#1763cf" stroke-linecap="round" stroke-linejoin="round" stroke-width="2" d="M17 6.5h-.5M13.5 6.5H13M17 13.5h-.5M3 10h18"/></svg>