<svg xmlns="http://www.w3.org/2000/svg" fill="none" viewBox="0 0 24 24"><path stroke="#1763cf" stroke-linecap="round" stroke-linejoin="round" stroke-width="2" d="M22 19c0-1.6569-1.3431-3-3-3s-3 1.3431-3 3 1.3431 3 3 3 3-1.3431 3-3"/><path stroke="#1763cf" stroke-linejoin="round" stroke-width="2" d="m7 17 5-4.5"/><path stroke="#1763cf" stroke-linecap="round" stroke-linejoin="round" stroke-width="2" d="M12 12.0004v-3"/><path stroke="#1763cf" stroke-linejoin="round" stroke-width="2" d="m12 12.5 5 4.5"/><path stroke="#1763cf" stroke-linecap="round" stroke-linejoin="round" stroke-width="2" d="M15 5c0-1.657-1.343-3-3-3S9 3.343 9 5s1.343 3 3 3 3-1.343 3-3M8 19c0-1.657-1.343-3-3-3s-3 1.343-3 3 1.343 3 3 3 3-1.343 3-3"/></svg>