<svg xmlns="http://www.w3.org/2000/svg" fill="none" viewBox="0 0 24 24"><path fill="#1763cf" d="M18.8352 16.9102c.4683-.2928.6106-.9098.3178-1.3781s-.9097-.6106-1.378-.3178l.5301.8479zm-5.6673 1.1846c-.4683.2927-.6106.9097-.3178 1.378s.9097.6106 1.378.3178l-.5301-.8479zm-6.9423-2.8811c-.4682-.2929-1.0852-.1507-1.378.3176-.293.4682-.1508 1.0852.3175 1.3781l.5303-.8479zm3.5462 4.5768c.4682.2929 1.0852.1507 1.3781-.3176.2928-.4682.1506-1.0852-.3176-1.3781l-.5303.8479zm-4.597-6.4093.8092.5875 5.6406-7.7696-.8092-.5875-.8093-.5875-5.6406 7.7696zM12 18h1V6h-2v12zm6.3051-1.9378-.5301-.8479-4.6071 2.8805.5301.8479.5301.8479 4.6071-2.8804zm-12.6097-.0007-.5303.8479 4.6067 2.8811.5302-.8478.5303-.8479-4.6067-2.8811zm7.4668-10.4336-.8078.5894 5.6598 7.7558.8077-.5895.8078-.5895L13.97 5.0384zM14 20h1c0-1.6569-1.3431-3-3-3v2c.5523 0 1 .4477 1 1zm-2-2v-1c-1.6569 0-3 1.3431-3 3h2c0-.5523.4477-1 1-1zm-2 2H9c0 1.6569 1.3431 3 3 3v-2c-.5523 0-1-.4477-1-1zm2 2v1c1.6569 0 3-1.3431 3-3h-2c0 .5523-.4477 1-1 1zm-6-7h1c0-1.6569-1.3431-3-3-3v2c.5523 0 1 .4477 1 1zm-2-2v-1c-1.6568 0-3 1.3431-3 3h2c0-.5523.4477-1 1-1zm-2 2H1c0 1.6569 1.3432 3 3 3v-2c-.5523 0-1-.4477-1-1zm2 2v1c1.6569 0 3-1.3431 3-3H5c0 .5523-.4477 1-1 1zm18-2h1c0-1.6569-1.3431-3-3-3v2c.5523 0 1 .4477 1 1zm-2-2v-1c-1.6569 0-3 1.3431-3 3h2c0-.5523.4477-1 1-1zm-2 2h-1c0 1.6569 1.3431 3 3 3v-2c-.5523 0-1-.4477-1-1zm2 2v1c1.6569 0 3-1.3431 3-3h-2c0 .5523-.4477 1-1 1zM14 4h1c0-1.6568-1.3431-3-3-3v2c.5523 0 1 .4477 1 1zm-2-2V1c-1.6569 0-3 1.3432-3 3h2c0-.5523.4477-1 1-1zm-2 2H9c0 1.6569 1.3431 3 3 3V5c-.5523 0-1-.4477-1-1zm2 2v1c1.6569 0 3-1.3431 3-3h-2c0 .5523-.4477 1-1 1z"/></svg>