<svg xmlns="http://www.w3.org/2000/svg" fill="none" viewBox="0 0 24 24"><path stroke="#1763cf" stroke-linecap="round" stroke-linejoin="round" stroke-width="2" d="M22 18.5c0-1.6569-1.3431-3-3-3s-3 1.3431-3 3 1.3431 3 3 3 3-1.3431 3-3"/><path fill="#1763cf" d="M9.8918 11.4522c.2499-.4925.0531-1.0943-.4394-1.3442-.4926-.2498-1.0944-.053-1.3442.4395L9 10.9999zM6.5 15.9286l.8918.4524 2.5-4.9288L9 10.9999l-.8918-.4524-2.5 4.9287z"/><path stroke="#1763cf" stroke-linecap="round" stroke-linejoin="round" stroke-width="2" d="M16 18.5h-4.5M15.5 12.5l-2.433-4.171M15 5.5c0-1.657-1.343-3-3-3s-3 1.343-3 3 1.343 3 3 3 3-1.343 3-3M8 18.5c0-1.657-1.343-3-3-3s-3 1.343-3 3 1.343 3 3 3 3-1.343 3-3"/></svg>