<svg xmlns="http://www.w3.org/2000/svg" fill="none" viewBox="0 0 24 24"><path stroke="#1763cf" stroke-linecap="round" stroke-linejoin="round" stroke-width="2" d="M12 2c1.933 0 3.5 1.567 3.5 3.5S13.933 9 12 9 8.5 7.433 8.5 5.5 10.067 2 12 2M4 18c1.105 0 2 .895 2 2s-.895 2-2 2-2-.895-2-2 .895-2 2-2M20 18c1.105 0 2 .895 2 2s-.895 2-2 2-2-.895-2-2 .895-2 2-2M12 18c1.105 0 2 .895 2 2s-.895 2-2 2-2-.895-2-2 .895-2 2-2"/><path stroke="#1763cf" stroke-linecap="round" stroke-linejoin="round" stroke-width="2" d="M20 18v-3c0-1.105-.895-2-2-2L12 13m-8 5v-3c0-1.105.895-2 2-2h6m0 5v-5M12 12V9"/></svg>