<svg xmlns="http://www.w3.org/2000/svg" fill="none" viewBox="0 0 24 24"><path stroke="#1763cf" stroke-linecap="round" stroke-linejoin="round" stroke-width="2" d="M7 14v-.5M7 7h6M16.5 7h.5"/><path fill="#1763cf" d="M5 3v1h14V2H5zm16 2h-1v11h2V5zm-2 13v-1H5v2h14zM3 16h1V5H2v11zm2 2v-1c-.5523 0-1-.4477-1-1H2c0 1.6569 1.3432 3 3 3zm16-2h-1c0 .5523-.4477 1-1 1v2c1.6569 0 3-1.3431 3-3zM19 3v1c.5523 0 1 .4477 1 1h2c0-1.6568-1.3431-3-3-3zM5 3V2C3.3432 2 2 3.3432 2 5h2c0-.5523.4477-1 1-1z"/><path stroke="#1763cf" stroke-linecap="round" stroke-linejoin="round" stroke-width="2" d="M7 18v3M17 18v3"/></svg>