<svg xmlns="http://www.w3.org/2000/svg" fill="none" viewBox="0 0 24 24"><path fill="#1763cf" d="M4 7v1h12V6H4zm14 2h-1v10h2V9zm-2 12v-1H4v2h12zM2 19h1V9H1v10zm2 2v-1c-.5523 0-1-.4477-1-1H1c0 1.6569 1.3432 3 3 3zm14-2h-1c0 .5523-.4477 1-1 1v2c1.6569 0 3-1.3431 3-3zM16 7v1c.5523 0 1 .4477 1 1h2c0-1.6569-1.3431-3-3-3zM4 7V6C2.3432 6 1 7.3431 1 9h2c0-.5523.4477-1 1-1z"/><path stroke="#1763cf" stroke-linecap="round" stroke-width="2" d="M2 14h16M18 10h3M18 17h2c1.105 0 2-.895 2-2V5c0-1.105-.895-2-2-2H8c-1.105 0-2 .895-2 2v2M14 17.5h-.5M14 10.5h-.5M10 10.5h-.5"/></svg>