<svg xmlns="http://www.w3.org/2000/svg" fill="none" viewBox="0 0 24 24"><path fill="#1763cf" d="M8 3v1h8V2H8zm10 2h-1v14h2V5zm-2 16v-1H8v2h8zM6 19h1V5H5v14zm2 2v-1c-.5523 0-1-.4477-1-1H5c0 1.6569 1.3431 3 3 3zm10-2h-1c0 .5523-.4477 1-1 1v2c1.6569 0 3-1.3431 3-3zM16 3v1c.5523 0 1 .4477 1 1h2c0-1.6568-1.3431-3-3-3zM8 3V2C6.3431 2 5 3.3432 5 5h2c0-.5523.4477-1 1-1z"/><path stroke="#1763cf" stroke-linecap="round" stroke-width="2" d="M6 15h11M6 9h11M14 6h-.5M14 12h-.5M14 18h-.5M18 19h2c1.105 0 2-.895 2-2V7c0-1.105-.895-2-2-2h-2M6 19H4c-1.105 0-2-.895-2-2V7c0-1.105.895-2 2-2h2"/></svg>