<svg xmlns="http://www.w3.org/2000/svg" fill="none" viewBox="0 0 24 24"><g clip-path="url(#tablet-phone-a)"><path stroke="#1763cf" stroke-linecap="round" stroke-linejoin="round" stroke-width="2" d="M11 6h2"/><path fill="#1763cf" d="M15 10v1h6V9h-6zm7 1h-1v11h2V11zm-1 12v-1h-6v2h6zm-7-1h1V11h-2v11zm1 1v-1h-2c0 1.1046.8954 2 2 2zm7-1h-1v2c1.1046 0 2-.8954 2-2zm-1-12v1h2c0-1.1046-.8954-2-2-2zm-6 0V9c-1.1046 0-2 .8954-2 2h2z"/><path stroke="#1763cf" stroke-linecap="round" stroke-width="2" d="M20 6V4c0-1.1046-.8954-2-2-2H6c-1.1046 0-2 .8954-2 2v16c0 1.1046.8954 2 2 2h4"/></g><defs><clipPath id="tablet-phone-a"><path fill="#fff" d="M0 0h24v24H0z"/></clipPath></defs></svg>