<svg xmlns="http://www.w3.org/2000/svg" fill="none" viewBox="0 0 24 24"><path fill="#1763cf" d="M4 7v1h12V6H4zm14 2h-1v9h2V9zm-2 11v-1H4v2h12zM2 18h1V9H1v9zm2 2v-1c-.5523 0-1-.4477-1-1H1c0 1.6569 1.3432 3 3 3zm14-2h-1c0 .5523-.4477 1-1 1v2c1.6569 0 3-1.3431 3-3zM16 7v1c.5523 0 1 .4477 1 1h2c0-1.6569-1.3431-3-3-3zM4 7V6C2.3432 6 1 7.3431 1 9h2c0-.5523.4477-1 1-1z"/><path stroke="#1763cf" stroke-linecap="round" stroke-width="2" d="M19.3333 16H20c1.1046 0 2-.8954 2-2V5c0-1.1046-.8954-2-2-2H8c-1.1046 0-2 .8954-2 2v2"/><path stroke="#1763cf" stroke-linecap="round" stroke-linejoin="round" stroke-width="2" d="M6.5 14.5c.552 0 1-.448 1-1s-.448-1-1-1-1 .448-1 1 .448 1 1 1M13.5 14.5c.552 0 1-.448 1-1s-.448-1-1-1-1 .448-1 1 .448 1 1 1"/><path stroke="#1763cf" stroke-linecap="round" stroke-width="2" d="M6.5 14.5h7"/></svg>